<svg width="181" height="81" viewBox="0 0 181 81" fill="none" xmlns="http://www.w3.org/2000/svg">
<path d="M14.8522 65.6248V67.5566H10.1031V76.5116H7.67822V65.6248H14.8522Z" fill="black"/>
<path d="M18.6958 67.7176V80.6972H16.2709V65.6248H18.5047L18.6958 67.7176ZM25.7894 70.9675V71.1788C25.7894 71.9704 25.6954 72.7049 25.5076 73.3824C25.3265 74.0531 25.0548 74.6401 24.6926 75.1432C24.3371 75.6395 23.8977 76.0252 23.3745 76.3003C22.8513 76.5753 22.2476 76.7128 21.5634 76.7128C20.8859 76.7128 20.2923 76.5887 19.7825 76.3405C19.2794 76.0856 18.8535 75.7267 18.5047 75.2639C18.1558 74.8011 17.8741 74.2577 17.6595 73.6339C17.4515 73.0034 17.304 72.3125 17.2168 71.5612V70.7462C17.304 69.948 17.4515 69.2235 17.6595 68.5728C17.8741 67.9222 18.1558 67.3621 18.5047 66.8925C18.8535 66.423 19.2794 66.0608 19.7825 65.8059C20.2856 65.551 20.8725 65.4235 21.5433 65.4235C22.2275 65.4235 22.8346 65.5577 23.3645 65.826C23.8944 66.0876 24.3405 66.4632 24.7027 66.9529C25.0649 67.4359 25.3366 68.0195 25.5177 68.7036C25.6988 69.3811 25.7894 70.1358 25.7894 70.9675ZM23.3645 71.1788V70.9675C23.3645 70.4645 23.3175 69.9983 23.2236 69.569C23.1297 69.133 22.9821 68.7506 22.7809 68.4219C22.5797 68.0932 22.3214 67.8383 22.0061 67.6572C21.6976 67.4694 21.3253 67.3755 20.8893 67.3755C20.46 67.3755 20.0911 67.4493 19.7825 67.5969C19.4739 67.7377 19.2157 67.9356 19.0077 68.1905C18.7998 68.4454 18.6388 68.7439 18.5248 69.086C18.4107 69.4214 18.3302 69.787 18.2833 70.1827V72.1347C18.3638 72.6177 18.5013 73.0604 18.6958 73.4629C18.8904 73.8653 19.1654 74.1873 19.5209 74.4288C19.8831 74.6636 20.346 74.7809 20.9094 74.7809C21.3454 74.7809 21.7177 74.687 22.0263 74.4992C22.3348 74.3114 22.5864 74.0531 22.7809 73.7245C22.9821 73.3891 23.1297 73.0034 23.2236 72.5674C23.3175 72.1313 23.3645 71.6685 23.3645 71.1788Z" fill="black"/>
<path d="M30.8907 75.3243L33.8488 65.6248H36.4447L32.0779 78.1717C31.9773 78.4401 31.8465 78.7318 31.6855 79.0471C31.5245 79.3624 31.3132 79.6609 31.0516 79.9426C30.7967 80.231 30.4781 80.4625 30.0958 80.6369C29.7134 80.818 29.2506 80.9085 28.7073 80.9085C28.4926 80.9085 28.2847 80.8884 28.0834 80.8482C27.8889 80.8146 27.7044 80.7777 27.53 80.7375L27.52 78.8861C27.587 78.8928 27.6675 78.8995 27.7615 78.9063C27.8621 78.913 27.9426 78.9163 28.0029 78.9163C28.4054 78.9163 28.7408 78.866 29.0091 78.7654C29.2774 78.6715 29.4954 78.5172 29.6631 78.3025C29.8375 78.0879 29.9851 77.7995 30.1058 77.4372L30.8907 75.3243ZM29.2204 65.6248L31.8063 73.7748L32.2389 76.3304L30.5586 76.7631L26.6044 65.6248H29.2204Z" fill="black"/>
<path d="M42.3409 71.3096H40.2481V70.0821H41.9384C42.3677 70.0821 42.7098 70.0251 42.9647 69.9111C43.2263 69.797 43.4108 69.6394 43.5181 69.4382C43.6322 69.2302 43.6892 68.9887 43.6892 68.7137C43.6892 68.4722 43.6322 68.2442 43.5181 68.0295C43.4108 67.8082 43.2263 67.627 42.9647 67.4862C42.7031 67.3453 42.3476 67.2749 41.8982 67.2749C41.5293 67.2749 41.1972 67.3353 40.9021 67.456C40.6136 67.5767 40.3856 67.7444 40.2179 67.9591C40.0502 68.1737 39.9663 68.4219 39.9663 68.7036H37.5415C37.5415 68.0262 37.7326 67.4426 38.115 66.9529C38.504 66.4632 39.0239 66.0876 39.6745 65.826C40.3252 65.5644 41.0396 65.4336 41.8177 65.4336C42.4818 65.4336 43.0788 65.504 43.6087 65.6449C44.1386 65.779 44.588 65.9803 44.957 66.2486C45.3326 66.5102 45.6177 66.8389 45.8122 67.2346C46.0134 67.6237 46.1141 68.0765 46.1141 68.593C46.1141 68.9619 46.0269 69.3107 45.8525 69.6394C45.6781 69.9681 45.4265 70.2599 45.0978 70.5148C44.7691 70.763 44.37 70.9575 43.9005 71.0983C43.4376 71.2392 42.9178 71.3096 42.3409 71.3096ZM40.2481 70.6053H42.3409C42.9849 70.6053 43.555 70.669 44.0514 70.7965C44.5478 70.9172 44.9637 71.0983 45.2991 71.3398C45.6345 71.5813 45.886 71.8798 46.0537 72.2353C46.2281 72.5841 46.3153 72.9866 46.3153 73.4427C46.3153 73.9525 46.2046 74.412 45.9833 74.8212C45.7686 75.2237 45.46 75.5658 45.0576 75.8475C44.6618 76.1292 44.1889 76.3439 43.6389 76.4914C43.0888 76.639 42.4818 76.7128 41.8177 76.7128C41.0933 76.7128 40.3889 76.5921 39.7047 76.3506C39.0272 76.1091 38.4671 75.7368 38.0244 75.2337C37.5884 74.7239 37.3704 74.0766 37.3704 73.2918H39.7953C39.7953 73.5668 39.8791 73.8251 40.0468 74.0666C40.2145 74.308 40.456 74.5059 40.7713 74.6602C41.0865 74.8078 41.4655 74.8816 41.9083 74.8816C42.3644 74.8816 42.7367 74.8111 43.0251 74.6703C43.3135 74.5227 43.5282 74.3315 43.6691 74.0967C43.8099 73.8553 43.8804 73.6004 43.8804 73.332C43.8804 72.9698 43.8099 72.678 43.6691 72.4567C43.5282 72.2353 43.3135 72.0743 43.0251 71.9737C42.7367 71.8664 42.3745 71.8127 41.9384 71.8127H40.2481V70.6053Z" fill="black"/>
<path d="M50.8833 72.9698L55.1596 65.6248H57.5844V76.5116H55.1596V69.1564L50.8833 76.5116H48.4584V65.6248H50.8833V72.9698Z" fill="black"/>
<path d="M67.5858 70.1727V72.0844H61.9512V70.1727H67.5858ZM62.6556 65.6248V76.5116H60.2307V65.6248H62.6556ZM69.3366 65.6248V76.5116H66.9117V65.6248H69.3366Z" fill="black"/>
<path d="M76.3697 74.7809C76.7655 74.7809 77.121 74.7038 77.4363 74.5495C77.7582 74.3885 78.0165 74.1672 78.211 73.8854C78.4122 73.6037 78.5229 73.2784 78.543 72.9095H80.8271C80.8136 73.6138 80.6057 74.2544 80.2032 74.8312C79.8008 75.4081 79.2675 75.8676 78.6034 76.2097C77.9393 76.5451 77.2048 76.7128 76.3999 76.7128C75.5681 76.7128 74.8437 76.5719 74.2266 76.2902C73.6094 76.0018 73.0963 75.606 72.6871 75.1029C72.2779 74.5998 71.9694 74.0196 71.7614 73.3622C71.5602 72.7049 71.4596 72.0005 71.4596 71.2493V70.8971C71.4596 70.1458 71.5602 69.4415 71.7614 68.7841C71.9694 68.1201 72.2779 67.5365 72.6871 67.0334C73.0963 66.5303 73.6094 66.1379 74.2266 65.8562C74.8437 65.5677 75.5648 65.4235 76.3898 65.4235C77.2618 65.4235 78.0265 65.5979 78.6839 65.9467C79.3413 66.2888 79.8578 66.7684 80.2334 67.3856C80.6158 67.996 80.8136 68.707 80.8271 69.5187H78.543C78.5229 69.1162 78.4223 68.754 78.2412 68.432C78.0668 68.1033 77.8186 67.8417 77.4966 67.6472C77.1814 67.4526 76.8024 67.3554 76.3596 67.3554C75.87 67.3554 75.4641 67.456 75.1422 67.6572C74.8202 67.8518 74.5687 68.1201 74.3875 68.4622C74.2064 68.7976 74.0756 69.1766 73.9951 69.5991C73.9213 70.015 73.8845 70.4477 73.8845 70.8971V71.2493C73.8845 71.6987 73.9213 72.1347 73.9951 72.5573C74.0689 72.9799 74.1964 73.3589 74.3775 73.6943C74.5653 74.023 74.8202 74.2879 75.1422 74.4891C75.4641 74.6837 75.8733 74.7809 76.3697 74.7809Z" fill="black"/>
<path d="M85.3045 65.6248V76.5116H82.8797V65.6248H85.3045ZM92.4081 65.6248L87.508 72.1749H84.7411L84.4191 69.9815H86.4415L89.3795 65.6248H92.4081ZM89.5707 76.5116L86.2906 71.7624L88.2023 70.384L92.7603 76.5116H89.5707Z" fill="black"/>
<path d="M100.216 74.3282V69.1363C100.216 68.7473 100.146 68.4119 100.005 68.1301C99.8639 67.8484 99.6492 67.6304 99.3608 67.4761C99.079 67.3218 98.7235 67.2447 98.2942 67.2447C97.8985 67.2447 97.5564 67.3118 97.2679 67.4459C96.9795 67.5801 96.7548 67.7612 96.5938 67.9893C96.4328 68.2173 96.3523 68.4756 96.3523 68.764H93.9375C93.9375 68.3347 94.0415 67.9188 94.2494 67.5164C94.4574 67.1139 94.7592 66.755 95.155 66.4398C95.5507 66.1245 96.0236 65.8763 96.5737 65.6952C97.1237 65.5141 97.7408 65.4235 98.425 65.4235C99.2434 65.4235 99.9678 65.561 100.598 65.8361C101.236 66.1111 101.735 66.527 102.098 67.0837C102.467 67.6338 102.651 68.3247 102.651 69.1564V73.9961C102.651 74.4925 102.685 74.9386 102.752 75.3343C102.825 75.7234 102.929 76.0621 103.063 76.3506V76.5116H100.578C100.464 76.25 100.374 75.9179 100.307 75.5154C100.246 75.1063 100.216 74.7105 100.216 74.3282ZM100.568 69.8909L100.588 71.3901H98.8476C98.3982 71.3901 98.0024 71.4337 97.6603 71.5209C97.3182 71.6014 97.0332 71.7222 96.8051 71.8832C96.577 72.0441 96.406 72.2387 96.2919 72.4667C96.1779 72.6948 96.1209 72.9531 96.1209 73.2415C96.1209 73.5299 96.188 73.7949 96.3221 74.0364C96.4563 74.2711 96.6508 74.4556 96.9057 74.5898C97.1673 74.7239 97.4826 74.791 97.8515 74.791C98.3479 74.791 98.7806 74.6904 99.1495 74.4891C99.5251 74.2812 99.8203 74.0297 100.035 73.7345C100.25 73.4327 100.364 73.1476 100.377 72.8793L101.162 73.9559C101.081 74.2309 100.944 74.526 100.749 74.8413C100.555 75.1566 100.3 75.4584 99.9846 75.7469C99.676 76.0286 99.3038 76.26 98.8678 76.4411C98.4385 76.6222 97.9421 76.7128 97.3786 76.7128C96.6676 76.7128 96.0337 76.5719 95.477 76.2902C94.9202 76.0018 94.4842 75.6161 94.1689 75.1331C93.8537 74.6434 93.696 74.09 93.696 73.4729C93.696 72.896 93.8033 72.3862 94.018 71.9435C94.2394 71.4941 94.5613 71.1185 94.9839 70.8166C95.4132 70.5148 95.9364 70.2867 96.5536 70.1324C97.1707 69.9714 97.875 69.8909 98.6665 69.8909H100.568Z" fill="black"/>
<path d="M107.481 71.1889H109.996L106.907 76.5116H104.402L107.481 71.1889ZM109.251 65.6248H113.92V76.5116H111.505V67.5365H109.251C108.795 67.5365 108.42 67.617 108.125 67.778C107.829 67.9322 107.611 68.1368 107.471 68.3917C107.33 68.6399 107.259 68.8948 107.259 69.1564C107.259 69.418 107.323 69.6696 107.45 69.9111C107.585 70.1525 107.789 70.3504 108.064 70.5047C108.346 70.659 108.698 70.7361 109.121 70.7361H112.32V72.507H109.121C108.45 72.507 107.85 72.4231 107.32 72.2554C106.79 72.081 106.34 71.8429 105.971 71.5411C105.602 71.2325 105.321 70.8736 105.126 70.4645C104.932 70.0486 104.834 69.5958 104.834 69.1061C104.834 68.603 104.935 68.1402 105.136 67.7176C105.337 67.295 105.626 66.9261 106.002 66.6108C106.384 66.2955 106.847 66.0541 107.39 65.8864C107.94 65.712 108.561 65.6248 109.251 65.6248Z" fill="black"/>
<path d="M124.364 65.6248V76.5116H121.939V65.6248H124.364ZM131.468 65.6248L126.568 72.1749H123.801L123.479 69.9815H125.501L128.439 65.6248H131.468ZM128.63 76.5116L125.35 71.7624L127.262 70.384L131.82 76.5116H128.63Z" fill="black"/>
<path d="M136.297 75.3243L139.256 65.6248H141.852L137.485 78.1717C137.384 78.4401 137.253 78.7318 137.092 79.0471C136.931 79.3624 136.72 79.6609 136.458 79.9426C136.204 80.231 135.885 80.4625 135.503 80.6369C135.12 80.818 134.657 80.9085 134.114 80.9085C133.899 80.9085 133.691 80.8884 133.49 80.8482C133.296 80.8146 133.111 80.7777 132.937 80.7375L132.927 78.8861C132.994 78.8928 133.074 78.8995 133.168 78.9063C133.269 78.913 133.349 78.9163 133.41 78.9163C133.812 78.9163 134.148 78.866 134.416 78.7654C134.684 78.6715 134.902 78.5172 135.07 78.3025C135.244 78.0879 135.392 77.7995 135.513 77.4372L136.297 75.3243ZM134.627 65.6248L137.213 73.7748L137.646 76.3304L135.965 76.7631L132.011 65.6248H134.627Z" fill="black"/>
<path d="M145.091 65.6248L147.164 69.2369L149.277 65.6248H151.943L148.643 70.9675L152.074 76.5116H149.408L147.194 72.7485L144.981 76.5116H142.304L145.725 70.9675L142.435 65.6248H145.091Z" fill="black"/>
<path d="M161.039 70.1727V72.0844H155.405V70.1727H161.039ZM156.109 65.6248V76.5116H153.684V65.6248H156.109ZM162.79 65.6248V76.5116H160.365V65.6248H162.79Z" fill="black"/>
<path d="M167.67 71.1889H170.185L167.096 76.5116H164.591L167.67 71.1889ZM169.441 65.6248H174.109V76.5116H171.695V67.5365H169.441C168.985 67.5365 168.609 67.617 168.314 67.778C168.019 67.9322 167.801 68.1368 167.66 68.3917C167.519 68.6399 167.449 68.8948 167.449 69.1564C167.449 69.418 167.512 69.6696 167.64 69.9111C167.774 70.1525 167.978 70.3504 168.253 70.5047C168.535 70.659 168.887 70.7361 169.31 70.7361H172.51V72.507H169.31C168.639 72.507 168.039 72.4231 167.509 72.2554C166.979 72.081 166.53 71.8429 166.161 71.5411C165.792 71.2325 165.51 70.8736 165.315 70.4645C165.121 70.0486 165.024 69.5958 165.024 69.1061C165.024 68.603 165.124 68.1402 165.326 67.7176C165.527 67.295 165.815 66.9261 166.191 66.6108C166.573 66.2955 167.036 66.0541 167.579 65.8864C168.129 65.712 168.75 65.6248 169.441 65.6248Z" fill="black"/>
<path d="M12.5386 29.7163V55.5221H9.17105V29.7163H12.5386ZM20.8333 29.7163V32.5167H0.894043V29.7163H20.8333Z" fill="#FF0000"/>
<path d="M42.3968 29.7163V32.5167H29.9547V55.5221H26.5517V29.7163H42.3968ZM29.1571 40.2265H36.1935C38.084 40.2265 39.6791 40.5455 40.9789 41.1836C42.2786 41.8098 43.2652 42.6901 43.9388 43.8244C44.6123 44.9588 44.949 46.2881 44.949 47.8123C44.949 48.9466 44.76 49.9864 44.3818 50.9317C44.0037 51.8651 43.4425 52.6804 42.6981 53.3776C41.9537 54.0629 41.038 54.5946 39.9509 54.9727C38.8638 55.339 37.6114 55.5221 36.1935 55.5221H26.5517V29.7163H29.9724V52.7395H36.1935C37.4578 52.7395 38.4798 52.5091 39.2597 52.0483C40.0513 51.5757 40.6303 50.9612 40.9966 50.205C41.3629 49.4488 41.546 48.6394 41.546 47.7769C41.546 46.9143 41.3629 46.1226 40.9966 45.4019C40.6303 44.6811 40.0513 44.108 39.2597 43.6827C38.4798 43.2455 37.4578 43.0269 36.1935 43.0269H29.1571V40.2265Z" fill="#FF0000"/>
<path d="M55.1161 49.6024L67.824 29.7163H71.2447V55.5221H67.824V35.6183L55.1161 55.5221H51.7131V29.7163H55.1161V49.6024Z" fill="#FF0000"/>
<path d="M96.3707 29.7163V32.5167H84.5666V29.7163H96.3707ZM99.3128 29.7163V55.5221H95.8922V29.7163H99.3128ZM83.3969 29.7163H86.7998L86.215 42.3534C86.1322 44.173 85.9905 45.7977 85.7896 47.2274C85.6005 48.6453 85.3288 49.8801 84.9743 50.9317C84.6198 51.9715 84.159 52.834 83.5918 53.5194C83.0247 54.1929 82.3275 54.695 81.5004 55.0259C80.6851 55.3567 79.7044 55.5221 78.5583 55.5221H77.6366V52.7395L78.3456 52.6863C79.0073 52.6391 79.5744 52.4914 80.0471 52.2432C80.5315 51.9833 80.9392 51.5934 81.27 51.0735C81.6127 50.5536 81.8904 49.8801 82.103 49.053C82.3157 48.2259 82.4811 47.2156 82.5993 46.0222C82.7293 44.817 82.8297 43.4109 82.9006 41.8039L83.3969 29.7163Z" fill="#FF0000"/>
<path d="M111.04 49.6024L123.748 29.7163H127.168V55.5221H123.748V35.6183L111.04 55.5221H107.637V29.7163H111.04V49.6024Z" fill="#FF0000"/>
<path d="M150.965 47.316H154.368C154.191 48.9466 153.724 50.4059 152.968 51.6938C152.212 52.9817 151.142 54.0038 149.76 54.76C148.377 55.5044 146.652 55.8766 144.584 55.8766C143.072 55.8766 141.695 55.593 140.455 55.0259C139.226 54.4587 138.168 53.6552 137.282 52.6154C136.396 51.5638 135.711 50.3054 135.226 48.8403C134.754 47.3633 134.517 45.7209 134.517 43.9131V41.3431C134.517 39.5353 134.754 37.8988 135.226 36.4336C135.711 34.9566 136.402 33.6923 137.3 32.6407C138.21 31.5891 139.303 30.7797 140.579 30.2126C141.855 29.6454 143.291 29.3618 144.886 29.3618C146.835 29.3618 148.484 29.7281 149.831 30.4607C151.178 31.1933 152.223 32.2095 152.968 33.5092C153.724 34.7971 154.191 36.2918 154.368 37.9933H150.965C150.8 36.7881 150.492 35.7542 150.043 34.8917C149.594 34.0173 148.956 33.3438 148.129 32.8711C147.302 32.3985 146.221 32.1622 144.886 32.1622C143.74 32.1622 142.729 32.3808 141.855 32.818C140.992 33.2552 140.266 33.8755 139.675 34.679C139.096 35.4824 138.659 36.4454 138.363 37.5679C138.068 38.6905 137.92 39.937 137.92 41.3077V43.9131C137.92 45.1774 138.05 46.3649 138.31 47.4755C138.582 48.5862 138.99 49.561 139.533 50.4C140.077 51.2389 140.768 51.9006 141.607 52.385C142.446 52.8577 143.438 53.094 144.584 53.094C146.038 53.094 147.196 52.8636 148.058 52.4028C148.921 51.9419 149.571 51.2803 150.008 50.4177C150.457 49.5551 150.776 48.5212 150.965 47.316Z" fill="#FF0000"/>
<path d="M180.894 41.8039V43.4345C180.894 45.3723 180.652 47.1093 180.167 48.6453C179.683 50.1814 178.986 51.487 178.076 52.5623C177.166 53.6375 176.073 54.4587 174.797 55.0259C173.533 55.593 172.115 55.8766 170.543 55.8766C169.019 55.8766 167.619 55.593 166.343 55.0259C165.079 54.4587 163.98 53.6375 163.046 52.5623C162.125 51.487 161.41 50.1814 160.902 48.6453C160.394 47.1093 160.139 45.3723 160.139 43.4345V41.8039C160.139 39.8661 160.388 38.1351 160.884 36.6109C161.392 35.0748 162.107 33.7691 163.028 32.6939C163.95 31.6068 165.043 30.7797 166.307 30.2126C167.583 29.6454 168.984 29.3618 170.508 29.3618C172.079 29.3618 173.497 29.6454 174.762 30.2126C176.038 30.7797 177.131 31.6068 178.041 32.6939C178.962 33.7691 179.665 35.0748 180.15 36.6109C180.646 38.1351 180.894 39.8661 180.894 41.8039ZM177.509 43.4345V41.7685C177.509 40.2324 177.349 38.8736 177.03 37.692C176.723 36.5104 176.268 35.5179 175.666 34.7144C175.063 33.9109 174.324 33.3024 173.45 32.8889C172.587 32.4753 171.607 32.2685 170.508 32.2685C169.444 32.2685 168.481 32.4753 167.619 32.8889C166.768 33.3024 166.036 33.9109 165.421 34.7144C164.819 35.5179 164.352 36.5104 164.021 37.692C163.69 38.8736 163.525 40.2324 163.525 41.7685V43.4345C163.525 44.9824 163.69 46.353 164.021 47.5464C164.352 48.728 164.824 49.7265 165.439 50.5418C166.065 51.3452 166.804 51.9538 167.654 52.3673C168.517 52.7809 169.48 52.9876 170.543 52.9876C171.654 52.9876 172.641 52.7809 173.503 52.3673C174.366 51.9538 175.092 51.3452 175.683 50.5418C176.286 49.7265 176.741 48.728 177.048 47.5464C177.355 46.353 177.509 44.9824 177.509 43.4345Z" fill="#FF0000"/>
<g clip-path="url(#clip0_40_262)">
<path d="M170.166 1.82901H170.14C169.436 1.82901 168.865 2.39986 168.865 3.10403V13.433C168.865 14.1372 169.436 14.708 170.14 14.708H170.166C170.87 14.708 171.441 14.1372 171.441 13.433V3.10403C171.441 2.39986 170.87 1.82901 170.166 1.82901Z" fill="#FF0000"/>
<path d="M175.318 6.98062H164.989C164.285 6.98062 163.714 7.55147 163.714 8.25564V8.2814C163.714 8.98558 164.285 9.55643 164.989 9.55643H175.318C176.022 9.55643 176.593 8.98558 176.593 8.2814V8.25564C176.593 7.55147 176.022 6.98062 175.318 6.98062Z" fill="#FF0000"/>
</g>
<path d="M39.8565 0.908539C40.8868 0.908539 41.8398 1.1747 42.7156 1.70704C43.5914 2.23937 44.2869 3.10656 44.802 4.3086C45.3344 5.49347 45.6005 7.0733 45.6005 9.04808C45.6005 10.5764 45.5147 11.9416 45.3429 13.1436C45.1884 14.3285 44.9566 15.4361 44.6475 16.4664C44.3555 17.4796 44.0035 18.5099 43.5914 19.5574H40.7065C41.1186 18.4927 41.4706 17.4366 41.7626 16.3891C42.0545 15.3245 42.2777 14.2083 42.4323 13.0406C42.604 11.8557 42.6899 10.5506 42.6899 9.12536C42.6899 7.68291 42.5525 6.53238 42.2777 5.67378C42.003 4.81518 41.6338 4.20557 41.1701 3.84496C40.7237 3.46717 40.1913 3.27828 39.5731 3.27828C38.9721 3.27828 38.4655 3.42424 38.0534 3.71617C37.6413 4.00809 37.3236 4.41163 37.1004 4.92679C36.8943 5.44196 36.7913 6.03439 36.7913 6.7041C36.7913 7.1334 36.8084 7.5627 36.8428 7.992C36.8771 8.40413 36.9029 8.81626 36.9201 9.22839C36.9544 9.62335 36.9716 10.0183 36.9716 10.4133C36.9716 12.4911 36.7312 14.2255 36.2503 15.6164C35.7695 17.0073 35.0397 18.0548 34.0609 18.7589C33.0821 19.4629 31.8457 19.8149 30.3518 19.8149C28.875 19.8149 27.6472 19.4629 26.6684 18.7589C25.6895 18.0376 24.9511 16.9816 24.4532 15.5906C23.9723 14.1825 23.7319 12.4396 23.7319 10.3617C23.7319 8.26676 23.9723 6.52379 24.4532 5.13286C24.9511 3.72475 25.6895 2.66867 26.6684 1.96462C27.6472 1.26056 28.8664 0.908539 30.326 0.908539C31.0987 0.908539 31.7942 1.01157 32.4124 1.21764C33.0478 1.40653 33.5973 1.70704 34.0609 2.11917C34.5417 2.5313 34.9281 3.06363 35.22 3.71617H35.2973C35.5549 3.02928 35.9241 2.48837 36.4049 2.09341C36.9029 1.68128 37.4524 1.38077 38.0534 1.19188C38.6544 1.00298 39.2555 0.908539 39.8565 0.908539ZM30.3518 17.4452C31.2275 17.4452 31.9316 17.1876 32.4639 16.6725C33.0134 16.1573 33.4084 15.3846 33.6488 14.3542C33.9064 13.3067 34.0352 11.9759 34.0352 10.3617C34.0352 8.71323 33.9064 7.37381 33.6488 6.34349C33.4084 5.29599 33.0134 4.52325 32.4639 4.02526C31.9144 3.52727 31.2104 3.27828 30.3518 3.27828C29.4932 3.27828 28.7891 3.53586 28.2396 4.05102C27.7073 4.54901 27.3123 5.32175 27.0547 6.36925C26.7971 7.41674 26.6684 8.74757 26.6684 10.3617C26.6684 11.9931 26.7971 13.3325 27.0547 14.38C27.3295 15.4275 27.733 16.2002 28.2654 16.6982C28.7977 17.1962 29.4932 17.4452 30.3518 17.4452Z" fill="black"/>
<path d="M55.2761 19.7892C54.4003 19.7892 53.5675 19.6432 52.7776 19.3513C51.9876 19.0422 51.2836 18.5957 50.6654 18.0119C50.0644 17.428 49.5836 16.7154 49.2229 15.874C48.8795 15.0325 48.7078 14.0623 48.7078 12.9633C48.7078 11.5209 48.9997 10.3016 49.5836 9.30566C50.1674 8.29251 50.9573 7.52836 51.9533 7.0132C52.9664 6.48086 54.0998 6.2147 55.3534 6.2147C56.5554 6.2147 57.6544 6.48086 58.6504 7.0132C59.6464 7.52836 60.4449 8.29251 61.0459 9.30566C61.6469 10.3188 61.9474 11.538 61.9474 12.9633C61.9474 14.0623 61.7757 15.0411 61.4323 15.8997C61.106 16.7412 60.6423 17.4538 60.0413 18.0376C59.4403 18.6043 58.7362 19.0422 57.9292 19.3513C57.1221 19.6432 56.2377 19.7892 55.2761 19.7892ZM55.3276 17.4194C56.0832 17.4194 56.7271 17.2391 57.2595 16.8785C57.809 16.5179 58.2383 16.0028 58.5474 15.333C58.8565 14.6633 59.011 13.8734 59.011 12.9633C59.011 12.0532 58.8565 11.2719 58.5474 10.6193C58.2383 9.96679 57.809 9.4688 57.2595 9.12536C56.7099 8.76474 56.0574 8.58444 55.3018 8.58444C54.2028 8.58444 53.3185 8.97939 52.6488 9.76931C51.9791 10.542 51.6442 11.6067 51.6442 12.9633C51.6442 13.8734 51.7902 14.6633 52.0821 15.333C52.3912 16.0028 52.8205 16.5179 53.37 16.8785C53.9367 17.2391 54.5892 17.4194 55.3276 17.4194ZM56.8216 6.78137L54.22 6.60107C54.3574 6.42935 54.4604 6.24045 54.5291 6.03439C54.615 5.82833 54.6579 5.61368 54.6579 5.39044C54.6579 5.02983 54.5463 4.7379 54.323 4.51466C54.0998 4.27426 53.8594 4.06819 53.6018 3.89647C53.3614 3.74192 53.121 3.53586 52.8806 3.27828C52.6573 3.0207 52.477 2.72019 52.3397 2.37675C52.2195 2.03331 52.1851 1.62976 52.2366 1.16612H54.967C54.967 1.52673 55.0614 1.82724 55.2503 2.06765C55.4564 2.29089 55.7054 2.50554 55.9973 2.7116C56.3923 2.98635 56.7271 3.30404 57.0019 3.66465C57.2766 4.02526 57.414 4.46315 57.414 4.97831C57.414 5.33892 57.3625 5.66519 57.2595 5.95712C57.1564 6.24904 57.0105 6.52379 56.8216 6.78137Z" fill="black"/>
<path d="M66.3551 19.5574C66.046 18.6816 65.7712 17.7715 65.5308 16.827C65.3076 15.8826 65.1273 14.8093 64.9899 13.6073C64.8525 12.4052 64.7838 11.0229 64.7838 9.46021C64.7838 7.41674 65.0757 5.76822 65.6596 4.51466C66.2606 3.26111 67.0591 2.35099 68.0551 1.78431C69.0511 1.20046 70.1673 0.908539 71.4036 0.908539C72.64 0.908539 73.7562 1.20046 74.7522 1.78431C75.7482 2.35099 76.5381 3.26111 77.1219 4.51466C77.7229 5.76822 78.0235 7.41674 78.0235 9.46021C78.0235 11.0229 77.9548 12.4052 77.8174 13.6073C77.68 14.7921 77.4997 15.8654 77.2765 16.827C77.0532 17.7715 76.7785 18.6816 76.4522 19.5574H73.6188C73.9279 18.6472 74.1855 17.7114 74.3916 16.7497C74.6148 15.7881 74.7865 14.732 74.9067 13.5815C75.0269 12.4138 75.087 11.0658 75.087 9.53749C75.087 8.00917 74.9325 6.78996 74.6234 5.87984C74.3315 4.95255 73.9022 4.29143 73.3355 3.89647C72.786 3.48434 72.142 3.27828 71.4036 3.27828C70.6652 3.27828 70.0127 3.48434 69.446 3.89647C68.8965 4.29143 68.4672 4.95255 68.1581 5.87984C67.8662 6.78996 67.7202 8.00917 67.7202 9.53749C67.7202 11.0658 67.7803 12.4138 67.9005 13.5815C68.0207 14.7492 68.1925 15.8139 68.4157 16.7755C68.6389 17.72 68.9051 18.6472 69.2142 19.5574H66.3551Z" fill="black"/>
<path d="M98.1584 19.5574C98.1069 19.1109 97.9266 18.7074 97.6175 18.3467C97.3084 17.9861 96.9134 17.6684 96.4326 17.3937C95.969 17.1189 95.4452 16.8957 94.8614 16.724C94.2775 16.5351 93.6679 16.3977 93.0326 16.3119C92.3972 16.2088 91.779 16.1573 91.178 16.1573C89.9759 16.1573 88.9198 16.2947 88.0097 16.5694C87.1168 16.827 86.2925 17.1447 85.537 17.5225L84.4551 15.6421C84.7642 15.4704 85.0819 15.3159 85.4082 15.1785C85.7344 15.024 86.0779 14.9037 86.4385 14.8179C86.8163 14.7149 87.2026 14.6462 87.5976 14.6118V14.5345C86.6188 14.3113 85.7258 13.9936 84.9188 13.5815C84.1288 13.1694 83.442 12.6542 82.8581 12.036C82.2914 11.4007 81.8536 10.6623 81.5445 9.82082C81.2525 8.97939 81.1066 8.01776 81.1066 6.93592C81.1066 5.76822 81.3041 4.72932 81.699 3.8192C82.1111 2.90908 82.7207 2.19644 83.5278 1.68128C84.3349 1.16612 85.3309 0.908539 86.5158 0.908539C87.5289 0.908539 88.3703 1.14895 89.0401 1.62976C89.7098 2.09341 90.1906 2.73736 90.4825 3.56162H90.6113C90.9032 2.70302 91.384 2.05048 92.0537 1.60401C92.7234 1.14036 93.5391 0.908539 94.5008 0.908539C95.5311 0.908539 96.3639 1.14895 96.9993 1.62976C97.6518 2.09341 98.1155 2.73736 98.3902 3.56162H98.519C98.8281 2.73736 99.3089 2.09341 99.9615 1.62976C100.631 1.14895 101.464 0.908539 102.46 0.908539C103.645 0.908539 104.641 1.18329 105.448 1.7328C106.255 2.2823 106.865 3.04646 107.277 4.02526C107.706 4.9869 107.921 6.10308 107.921 7.37381C107.921 8.40413 107.8 9.37435 107.56 10.2845C107.337 11.1946 106.985 12.0961 106.504 12.9891L103.928 12.1133C104.34 11.2719 104.624 10.4648 104.778 9.69203C104.95 8.91929 105.036 8.10362 105.036 7.24502C105.036 5.93994 104.787 4.95255 104.289 4.28284C103.791 3.61313 103.104 3.27828 102.228 3.27828C101.73 3.27828 101.301 3.43283 100.94 3.74192C100.58 4.03385 100.305 4.43739 100.116 4.95255C99.9271 5.46771 99.8327 6.06015 99.8327 6.72986V9.74355H97.1023V6.60107C97.1023 5.9657 97.0079 5.40761 96.819 4.92679C96.6301 4.42881 96.3467 4.03385 95.969 3.74192C95.5912 3.43283 95.1018 3.27828 94.5008 3.27828C93.9513 3.27828 93.479 3.41565 93.0841 3.69041C92.7063 3.96516 92.4144 4.35153 92.2083 4.84952C92.0194 5.34751 91.925 5.93136 91.925 6.60107V9.74355H89.1946V6.72986C89.1946 6.11166 89.1087 5.54499 88.937 5.02983C88.7825 4.49749 88.5249 4.07678 88.1643 3.76768C87.8208 3.44141 87.3658 3.27828 86.7991 3.27828C85.9405 3.27828 85.2536 3.57879 84.7385 4.17981C84.2405 4.78083 83.9915 5.73388 83.9915 7.03895C83.9915 8.15514 84.189 9.10818 84.5839 9.8981C84.9789 10.688 85.5455 11.3491 86.2839 11.8815C87.0223 12.3966 87.8981 12.8088 88.9113 13.1179C89.9416 13.427 91.0749 13.6502 92.3113 13.7876C93.3932 13.9078 94.4149 14.1052 95.3765 14.38C96.3553 14.6548 97.2397 15.024 98.0296 15.4876C98.8195 15.9512 99.4635 16.5179 99.9615 17.1876C100.477 17.8573 100.794 18.6472 100.915 19.5574H98.1584Z" fill="black"/>
<path d="M112.589 19.5574C112.28 18.6816 112.005 17.7715 111.764 16.827C111.541 15.8826 111.361 14.8093 111.224 13.6073C111.086 12.4052 111.018 11.0229 111.018 9.46021C111.018 7.41674 111.309 5.76822 111.893 4.51466C112.494 3.26111 113.293 2.35099 114.289 1.78431C115.285 1.20046 116.401 0.908539 117.637 0.908539C118.874 0.908539 119.99 1.20046 120.986 1.78431C121.982 2.35099 122.772 3.26111 123.356 4.51466C123.957 5.76822 124.257 7.41674 124.257 9.46021C124.257 11.0229 124.188 12.4052 124.051 13.6073C123.914 14.7921 123.733 15.8654 123.51 16.827C123.287 17.7715 123.012 18.6816 122.686 19.5574H119.853C120.162 18.6472 120.419 17.7114 120.625 16.7497C120.848 15.7881 121.02 14.732 121.14 13.5815C121.261 12.4138 121.321 11.0658 121.321 9.53749C121.321 8.00917 121.166 6.78996 120.857 5.87984C120.565 4.95255 120.136 4.29143 119.569 3.89647C119.02 3.48434 118.376 3.27828 117.637 3.27828C116.899 3.27828 116.246 3.48434 115.68 3.89647C115.13 4.29143 114.701 4.95255 114.392 5.87984C114.1 6.78996 113.954 8.00917 113.954 9.53749C113.954 11.0658 114.014 12.4138 114.134 13.5815C114.254 14.7492 114.426 15.8139 114.649 16.7755C114.873 17.72 115.139 18.6472 115.448 19.5574H112.589Z" fill="black"/>
<path d="M134.295 19.8149C132.2 19.8149 130.603 19.2483 129.504 18.1149C128.405 16.9644 127.855 15.3245 127.855 13.1951V1.16612H130.637V13.427C130.637 14.234 130.766 14.9381 131.024 15.5391C131.298 16.1401 131.702 16.6124 132.234 16.9558C132.767 17.2821 133.453 17.4452 134.295 17.4452C135.102 17.4452 135.763 17.2907 136.278 16.9816C136.811 16.6553 137.206 16.226 137.463 15.6937C137.721 15.1613 137.85 14.5861 137.85 13.9679C137.85 13.2295 137.721 12.6199 137.463 12.139C137.223 11.6411 136.931 11.1774 136.587 10.7481C136.158 10.1814 135.78 9.56324 135.454 8.89353C135.128 8.22382 134.999 7.41674 135.068 6.47228H137.953C137.935 7.17633 138.073 7.78594 138.365 8.3011C138.657 8.79909 139 9.31425 139.395 9.84658C139.773 10.3617 140.099 10.937 140.374 11.5724C140.649 12.2077 140.786 12.9977 140.786 13.9421C140.786 15.1098 140.52 16.1401 139.987 17.0331C139.455 17.9089 138.7 18.5957 137.721 19.0937C136.742 19.5745 135.6 19.8149 134.295 19.8149Z" fill="black"/>
<path d="M145.189 19.5574C144.88 18.6816 144.605 17.7715 144.365 16.827C144.141 15.8826 143.961 14.8093 143.824 13.6073C143.686 12.4052 143.618 11.0229 143.618 9.46021C143.618 7.41674 143.909 5.76822 144.493 4.51466C145.094 3.26111 145.893 2.35099 146.889 1.78431C147.885 1.20046 149.001 0.908539 150.237 0.908539C151.474 0.908539 152.59 1.20046 153.586 1.78431C154.582 2.35099 155.372 3.26111 155.956 4.51466C156.557 5.76822 156.857 7.41674 156.857 9.46021C156.857 11.0229 156.788 12.4052 156.651 13.6073C156.514 14.7921 156.333 15.8654 156.11 16.827C155.887 17.7715 155.612 18.6816 155.286 19.5574H152.453C152.762 18.6472 153.019 17.7114 153.225 16.7497C153.449 15.7881 153.62 14.732 153.74 13.5815C153.861 12.4138 153.921 11.0658 153.921 9.53749C153.921 8.00917 153.766 6.78996 153.457 5.87984C153.165 4.95255 152.736 4.29143 152.169 3.89647C151.62 3.48434 150.976 3.27828 150.237 3.27828C149.499 3.27828 148.846 3.48434 148.28 3.89647C147.73 4.29143 147.301 4.95255 146.992 5.87984C146.7 6.78996 146.554 8.00917 146.554 9.53749C146.554 11.0658 146.614 12.4138 146.734 13.5815C146.854 14.7492 147.026 15.8139 147.249 16.7755C147.473 17.72 147.739 18.6472 148.048 19.5574H145.189Z" fill="black"/>
<g clip-path="url(#clip1_40_262)">
<path d="M13.4878 1.82901H13.462C12.7579 1.82901 12.187 2.39986 12.187 3.10403V13.433C12.187 14.1372 12.7579 14.708 13.462 14.708H13.4878C14.192 14.708 14.7628 14.1372 14.7628 13.433V3.10403C14.7628 2.39986 14.192 1.82901 13.4878 1.82901Z" fill="#FF0000"/>
<path d="M18.6396 6.98062H8.31067C7.60649 6.98062 7.03564 7.55147 7.03564 8.25564V8.2814C7.03564 8.98558 7.60649 9.55643 8.31067 9.55643H18.6396C19.3438 9.55643 19.9147 8.98558 19.9147 8.2814V8.25564C19.9147 7.55147 19.3438 6.98062 18.6396 6.98062Z" fill="#FF0000"/>
</g>
<defs>
<clipPath id="clip0_40_262">
<rect width="12.879" height="12.879" fill="white" transform="translate(163.714 1.82901)"/>
</clipPath>
<clipPath id="clip1_40_262">
<rect width="12.879" height="12.879" fill="white" transform="translate(7.03564 1.82901)"/>
</clipPath>
</defs>
</svg>
