<svg width="201" height="95" viewBox="0 0 201 95" fill="none" xmlns="http://www.w3.org/2000/svg">
<path d="M9.77553 76.9024V79.1811H4.17372V89.7438H1.31348V76.9024H9.77553Z" fill="white"/>
<path d="M14.3092 79.371V94.681H11.4489V76.9024H14.0837L14.3092 79.371ZM22.6763 83.2044V83.4537C22.6763 84.3873 22.5655 85.2537 22.344 86.0528C22.1304 86.844 21.8099 87.5363 21.3827 88.1298C20.9633 88.7153 20.4451 89.1702 19.8279 89.4946C19.2108 89.819 18.4987 89.9812 17.6916 89.9812C16.8925 89.9812 16.1923 89.8348 15.591 89.5421C14.9976 89.2414 14.4951 88.8181 14.0837 88.2722C13.6723 87.7262 13.34 87.0853 13.0868 86.3495C12.8415 85.6058 12.6674 84.7908 12.5646 83.9047V82.9433C12.6674 82.0018 12.8415 81.1473 13.0868 80.3798C13.34 79.6123 13.6723 78.9517 14.0837 78.3978C14.4951 77.844 14.9976 77.4167 15.591 77.116C16.1844 76.8154 16.8767 76.665 17.6679 76.665C18.4749 76.665 19.191 76.8233 19.8161 77.1398C20.4411 77.4483 20.9673 77.8914 21.3945 78.469C21.8218 79.0387 22.1422 79.727 22.3559 80.5341C22.5695 81.3332 22.6763 82.2233 22.6763 83.2044ZM19.8161 83.4537V83.2044C19.8161 82.611 19.7607 82.0611 19.6499 81.5548C19.5391 81.0405 19.3651 80.5895 19.1277 80.2018C18.8903 79.8141 18.5857 79.5134 18.2138 79.2998C17.8499 79.0782 17.4108 78.9675 16.8965 78.9675C16.3901 78.9675 15.9549 79.0545 15.591 79.2286C15.227 79.3947 14.9224 79.6281 14.6771 79.9288C14.4318 80.2295 14.2419 80.5816 14.1074 80.9851C13.9729 81.3807 13.878 81.8119 13.8226 82.2787V84.5812C13.9175 85.1508 14.0797 85.673 14.3092 86.1478C14.5386 86.6225 14.863 87.0023 15.2824 87.2871C15.7096 87.564 16.2556 87.7025 16.9202 87.7025C17.4345 87.7025 17.8736 87.5917 18.2376 87.3702C18.6015 87.1486 18.8982 86.844 19.1277 86.4563C19.3651 86.0607 19.5391 85.6058 19.6499 85.0915C19.7607 84.5772 19.8161 84.0313 19.8161 83.4537Z" fill="white"/>
<path d="M28.6935 88.3434L32.1828 76.9024H35.2448L30.0939 91.7021C29.9753 92.0186 29.821 92.3628 29.6311 92.7346C29.4412 93.1065 29.192 93.4586 28.8834 93.7909C28.5827 94.1311 28.2069 94.4041 27.7559 94.6098C27.3049 94.8234 26.759 94.9303 26.1181 94.9303C25.8649 94.9303 25.6196 94.9065 25.3823 94.859C25.1528 94.8195 24.9352 94.776 24.7295 94.7285L24.7176 92.5447C24.7968 92.5526 24.8917 92.5606 25.0025 92.5685C25.1212 92.5764 25.2161 92.5803 25.2873 92.5803C25.762 92.5803 26.1576 92.521 26.4741 92.4023C26.7906 92.2915 27.0478 92.1096 27.2456 91.8564C27.4513 91.6032 27.6254 91.263 27.7678 90.8357L28.6935 88.3434ZM26.7234 76.9024L29.7735 86.5157L30.2838 89.5302L28.3018 90.0405L23.6376 76.9024H26.7234Z" fill="white"/>
<path d="M42.1995 83.608H39.7309V82.16H41.7248C42.2312 82.16 42.6347 82.0928 42.9354 81.9583C43.2439 81.8238 43.4615 81.6378 43.5881 81.4005C43.7226 81.1552 43.7899 80.8704 43.7899 80.546C43.7899 80.2611 43.7226 79.9921 43.5881 79.7389C43.4615 79.4778 43.2439 79.2642 42.9354 79.098C42.6268 78.9319 42.2075 78.8488 41.6773 78.8488C41.2422 78.8488 40.8505 78.92 40.5024 79.0624C40.1622 79.2048 39.8932 79.4026 39.6953 79.6558C39.4975 79.909 39.3986 80.2018 39.3986 80.5341H36.5384C36.5384 79.735 36.7639 79.0466 37.2149 78.469C37.6738 77.8914 38.287 77.4483 39.0545 77.1398C39.8219 76.8312 40.6646 76.6769 41.5824 76.6769C42.3657 76.6769 43.0699 76.76 43.6949 76.9261C44.32 77.0844 44.8501 77.3217 45.2853 77.6382C45.7284 77.9468 46.0646 78.3345 46.2941 78.8013C46.5314 79.2602 46.6501 79.7943 46.6501 80.4035C46.6501 80.8387 46.5473 81.2501 46.3416 81.6378C46.1358 82.0255 45.8391 82.3697 45.4514 82.6704C45.0637 82.9631 44.593 83.1926 44.0391 83.3587C43.4932 83.5249 42.88 83.608 42.1995 83.608ZM39.7309 82.7772H42.1995C42.9591 82.7772 43.6316 82.8523 44.2171 83.0027C44.8026 83.1451 45.2932 83.3587 45.6888 83.6436C46.0844 83.9284 46.3811 84.2805 46.5789 84.6998C46.7846 85.1113 46.8875 85.586 46.8875 86.124C46.8875 86.7253 46.7569 87.2673 46.4958 87.75C46.2427 88.2247 45.8787 88.6282 45.404 88.9605C44.9371 89.2928 44.3793 89.546 43.7305 89.7201C43.0817 89.8942 42.3657 89.9812 41.5824 89.9812C40.7279 89.9812 39.8971 89.8388 39.0901 89.5539C38.2909 89.2691 37.6303 88.83 37.1081 88.2366C36.5938 87.6352 36.3366 86.8717 36.3366 85.946H39.1969C39.1969 86.2704 39.2958 86.575 39.4936 86.8599C39.6914 87.1447 39.9762 87.3781 40.3481 87.5601C40.72 87.7341 41.167 87.8212 41.6892 87.8212C42.2272 87.8212 42.6664 87.7381 43.0066 87.5719C43.3468 87.3979 43.6 87.1724 43.7661 86.8955C43.9323 86.6106 44.0154 86.31 44.0154 85.9935C44.0154 85.5662 43.9323 85.222 43.7661 84.9609C43.6 84.6998 43.3468 84.5099 43.0066 84.3913C42.6664 84.2647 42.2391 84.2014 41.7248 84.2014H39.7309V82.7772Z" fill="white"/>
<path d="M52.2757 85.5662L57.3197 76.9024H60.1799V89.7438H57.3197V81.0682L52.2757 89.7438H49.4154V76.9024H52.2757V85.5662Z" fill="white"/>
<path d="M71.9769 82.2668V84.5218H65.3307V82.2668H71.9769ZM66.1615 76.9024V89.7438H63.3013V76.9024H66.1615ZM74.042 76.9024V89.7438H71.1818V76.9024H74.042Z" fill="white"/>
<path d="M82.3379 87.7025C82.8047 87.7025 83.2241 87.6115 83.5959 87.4295C83.9757 87.2396 84.2803 86.9785 84.5098 86.6462C84.7472 86.3139 84.8777 85.9302 84.9014 85.495H87.5955C87.5797 86.3258 87.3344 87.0814 86.8597 87.7618C86.385 88.4423 85.756 88.9843 84.9727 89.3878C84.1894 89.7834 83.323 89.9812 82.3735 89.9812C81.3924 89.9812 80.5379 89.815 79.81 89.4827C79.0821 89.1425 78.4768 88.6757 77.9941 88.0823C77.5115 87.4889 77.1475 86.8045 76.9023 86.0291C76.6649 85.2537 76.5462 84.4229 76.5462 83.5367V83.1214C76.5462 82.2352 76.6649 81.4044 76.9023 80.629C77.1475 79.8457 77.5115 79.1574 77.9941 78.564C78.4768 77.9705 79.0821 77.5077 79.81 77.1754C80.5379 76.8352 81.3885 76.665 82.3616 76.665C83.3902 76.665 84.2922 76.8708 85.0676 77.2822C85.843 77.6857 86.4522 78.2514 86.8953 78.9793C87.3463 79.6994 87.5797 80.538 87.5955 81.4954H84.9014C84.8777 81.0207 84.759 80.5934 84.5454 80.2136C84.3397 79.8259 84.0469 79.5174 83.6672 79.2879C83.2953 79.0585 82.8482 78.9437 82.326 78.9437C81.7485 78.9437 81.2698 79.0624 80.89 79.2998C80.5102 79.5292 80.2135 79.8457 79.9999 80.2492C79.7862 80.6449 79.632 81.0919 79.537 81.5904C79.45 82.0809 79.4065 82.5912 79.4065 83.1214V83.5367C79.4065 84.0669 79.45 84.5812 79.537 85.0796C79.624 85.5781 79.7744 86.0251 79.988 86.4207C80.2095 86.8084 80.5102 87.121 80.89 87.3583C81.2698 87.5878 81.7524 87.7025 82.3379 87.7025Z" fill="white"/>
<path d="M92.8769 76.9024V89.7438H90.0167V76.9024H92.8769ZM101.256 76.9024L95.476 84.6286H92.2123L91.8325 82.0413H94.218L97.6835 76.9024H101.256ZM97.909 89.7438L94.04 84.142L96.295 82.5161L101.671 89.7438H97.909Z" fill="white"/>
<path d="M110.466 87.1684V81.0444C110.466 80.5855 110.383 80.1899 110.216 79.8576C110.05 79.5253 109.797 79.2681 109.457 79.0862C109.125 78.9042 108.705 78.8132 108.199 78.8132C107.732 78.8132 107.328 78.8923 106.988 79.0506C106.648 79.2088 106.383 79.4224 106.193 79.6914C106.003 79.9605 105.908 80.2651 105.908 80.6053H103.06C103.06 80.0989 103.182 79.6084 103.428 79.1336C103.673 78.6589 104.029 78.2356 104.496 77.8637C104.963 77.4919 105.521 77.1991 106.169 76.9855C106.818 76.7719 107.546 76.665 108.353 76.665C109.318 76.665 110.173 76.8272 110.917 77.1516C111.668 77.476 112.258 77.9666 112.685 78.6233C113.12 79.2721 113.338 80.087 113.338 81.0682V86.7768C113.338 87.3623 113.377 87.8884 113.456 88.3553C113.543 88.8142 113.666 89.2137 113.824 89.5539V89.7438H110.893C110.758 89.4353 110.652 89.0436 110.572 88.5689C110.501 88.0862 110.466 87.6194 110.466 87.1684ZM110.881 81.9345L110.905 83.7029H108.852C108.321 83.7029 107.855 83.7543 107.451 83.8572C107.048 83.9521 106.711 84.0946 106.442 84.2844C106.173 84.4743 105.972 84.7038 105.837 84.9728C105.703 85.2418 105.635 85.5464 105.635 85.8867C105.635 86.2269 105.714 86.5394 105.873 86.8242C106.031 87.1012 106.26 87.3188 106.561 87.477C106.87 87.6352 107.241 87.7144 107.677 87.7144C108.262 87.7144 108.772 87.5957 109.208 87.3583C109.651 87.113 109.999 86.8163 110.252 86.4682C110.505 86.1122 110.64 85.7759 110.656 85.4594L111.581 86.7293C111.486 87.0537 111.324 87.4018 111.095 87.7737C110.865 88.1456 110.565 88.5016 110.193 88.8418C109.829 89.1742 109.39 89.4471 108.875 89.6608C108.369 89.8744 107.783 89.9812 107.119 89.9812C106.28 89.9812 105.532 89.815 104.876 89.4827C104.219 89.1425 103.705 88.6876 103.333 88.1179C102.961 87.5403 102.775 86.8875 102.775 86.1596C102.775 85.4792 102.902 84.8779 103.155 84.3557C103.416 83.8255 103.796 83.3825 104.294 83.0264C104.801 82.6704 105.418 82.4014 106.146 82.2194C106.874 82.0295 107.704 81.9345 108.638 81.9345H110.881Z" fill="white"/>
<path d="M119.034 83.4655H122.002L118.358 89.7438H115.403L119.034 83.4655ZM121.123 76.9024H126.63V89.7438H123.782V79.1574H121.123C120.585 79.1574 120.142 79.2523 119.794 79.4422C119.446 79.6242 119.189 79.8655 119.023 80.1662C118.856 80.4589 118.773 80.7596 118.773 81.0682C118.773 81.3767 118.849 81.6734 118.999 81.9583C119.157 82.2431 119.398 82.4765 119.723 82.6585C120.055 82.8405 120.471 82.9315 120.969 82.9315H124.743V85.0203H120.969C120.178 85.0203 119.47 84.9214 118.845 84.7236C118.22 84.5179 117.689 84.237 117.254 83.8809C116.819 83.517 116.487 83.0937 116.257 82.611C116.028 82.1205 115.913 81.5864 115.913 81.0088C115.913 80.4154 116.032 79.8695 116.269 79.371C116.507 78.8725 116.847 78.4374 117.29 78.0655C117.741 77.6936 118.287 77.4088 118.928 77.211C119.576 77.0053 120.308 76.9024 121.123 76.9024Z" fill="white"/>
<path d="M138.949 76.9024V89.7438H136.089V76.9024H138.949ZM147.328 76.9024L141.549 84.6286H138.285L137.905 82.0413H140.29L143.756 76.9024H147.328ZM143.982 89.7438L140.112 84.142L142.367 82.5161L147.744 89.7438H143.982Z" fill="white"/>
<path d="M153.025 88.3434L156.514 76.9024H159.576L154.426 91.7021C154.307 92.0186 154.153 92.3628 153.963 92.7346C153.773 93.1065 153.524 93.4586 153.215 93.7909C152.914 94.1311 152.539 94.4041 152.088 94.6098C151.637 94.8234 151.091 94.9303 150.45 94.9303C150.197 94.9303 149.951 94.9065 149.714 94.859C149.484 94.8195 149.267 94.776 149.061 94.7285L149.049 92.5447C149.128 92.5526 149.223 92.5606 149.334 92.5685C149.453 92.5764 149.548 92.5803 149.619 92.5803C150.094 92.5803 150.489 92.521 150.806 92.4023C151.122 92.2915 151.379 92.1096 151.577 91.8564C151.783 91.6032 151.957 91.263 152.099 90.8357L153.025 88.3434ZM151.055 76.9024L154.105 86.5157L154.615 89.5302L152.633 90.0405L147.969 76.9024H151.055Z" fill="white"/>
<path d="M163.398 76.9024L165.843 81.1631L168.335 76.9024H171.48L167.587 83.2044L171.635 89.7438H168.489L165.878 85.3051L163.267 89.7438H160.11L164.146 83.2044L160.265 76.9024H163.398Z" fill="white"/>
<path d="M182.209 82.2668V84.5218H175.563V82.2668H182.209ZM176.394 76.9024V89.7438H173.533V76.9024H176.394ZM184.274 76.9024V89.7438H181.414V76.9024H184.274Z" fill="white"/>
<path d="M190.03 83.4655H192.997L189.354 89.7438H186.399L190.03 83.4655ZM192.119 76.9024H197.626V89.7438H194.778V79.1574H192.119C191.581 79.1574 191.138 79.2523 190.79 79.4422C190.442 79.6242 190.185 79.8655 190.018 80.1662C189.852 80.4589 189.769 80.7596 189.769 81.0682C189.769 81.3767 189.844 81.6734 189.995 81.9583C190.153 82.2431 190.394 82.4765 190.719 82.6585C191.051 82.8405 191.466 82.9315 191.965 82.9315H195.739V85.0203H191.965C191.174 85.0203 190.465 84.9214 189.84 84.7236C189.215 84.5179 188.685 84.237 188.25 83.8809C187.815 83.517 187.483 83.0937 187.253 82.611C187.024 82.1205 186.909 81.5864 186.909 81.0088C186.909 80.4154 187.028 79.8695 187.265 79.371C187.502 78.8725 187.843 78.4374 188.286 78.0655C188.737 77.6936 189.283 77.4088 189.923 77.211C190.572 77.0053 191.304 76.9024 192.119 76.9024Z" fill="white"/>
<path d="M16.8065 35.7742V62.7744H13.2831V35.7742H16.8065ZM25.4852 35.7742V38.7042H4.62305V35.7742H25.4852Z" fill="#FF0000"/>
<path d="M48.0467 35.7742V38.7042H35.0287V62.7744H31.4683V35.7742H48.0467ZM34.1942 46.7709H41.5562C43.5343 46.7709 45.2033 47.1047 46.5632 47.7722C47.9231 48.4275 48.9553 49.3485 49.66 50.5353C50.3647 51.7221 50.717 53.113 50.717 54.7077C50.717 55.8946 50.5192 56.9825 50.1236 57.9715C49.728 58.9482 49.1408 59.8012 48.3619 60.5306C47.5831 61.2476 46.625 61.804 45.4876 62.1996C44.3502 62.5828 43.0398 62.7744 41.5562 62.7744H31.4683V35.7742H35.0473V59.863H41.5562C42.8791 59.863 43.9484 59.6219 44.7644 59.1398C45.5927 58.6453 46.1985 58.0024 46.5817 57.2112C46.965 56.42 47.1566 55.5731 47.1566 54.6707C47.1566 53.7682 46.965 52.9399 46.5817 52.1857C46.1985 51.4316 45.5927 50.832 44.7644 50.387C43.9484 49.9295 42.8791 49.7008 41.5562 49.7008H34.1942V46.7709Z" fill="#FF0000"/>
<path d="M61.3547 56.5807L74.6508 35.7742H78.2298V62.7744H74.6508V41.9494L61.3547 62.7744H57.7942V35.7742H61.3547V56.5807Z" fill="#FF0000"/>
<path d="M104.519 35.7742V38.7042H92.1683V35.7742H104.519ZM107.597 35.7742V62.7744H104.018V35.7742H107.597ZM90.9444 35.7742H94.5049L93.8929 48.9962C93.8064 50.9 93.658 52.5999 93.4479 54.0958C93.2501 55.5793 92.9657 56.8712 92.5948 57.9715C92.224 59.0594 91.7418 59.9619 91.1484 60.6789C90.555 61.3836 89.8256 61.909 88.9602 62.2552C88.1072 62.6014 87.0811 62.7744 85.8819 62.7744H84.9176V59.863L85.6593 59.8074C86.3517 59.7579 86.9451 59.6034 87.4396 59.3438C87.9465 59.0718 88.373 58.6638 88.7191 58.1199C89.0776 57.5759 89.3682 56.8712 89.5907 56.0058C89.8132 55.1404 89.9863 54.0834 90.1099 52.8348C90.2459 51.5738 90.351 50.1026 90.4252 48.4213L90.9444 35.7742Z" fill="#FF0000"/>
<path d="M119.867 56.5807L133.163 35.7742H136.742V62.7744H133.163V41.9494L119.867 62.7744H116.306V35.7742H119.867V56.5807Z" fill="#FF0000"/>
<path d="M161.64 54.1885H165.2C165.015 55.8946 164.526 57.4214 163.735 58.7689C162.944 60.1164 161.825 61.1858 160.379 61.977C158.932 62.7559 157.127 63.1453 154.964 63.1453C153.381 63.1453 151.941 62.8486 150.643 62.2552C149.357 61.6618 148.251 60.8211 147.324 59.7332C146.397 58.6329 145.679 57.3163 145.173 55.7833C144.678 54.238 144.431 52.5195 144.431 50.628V47.9391C144.431 46.0476 144.678 44.3354 145.173 42.8024C145.679 41.2571 146.403 39.9343 147.342 38.834C148.294 37.7337 149.438 36.8868 150.773 36.2934C152.108 35.7 153.61 35.4033 155.279 35.4033C157.319 35.4033 159.044 35.7866 160.453 36.5531C161.862 37.3195 162.956 38.3827 163.735 39.7426C164.526 41.0902 165.015 42.6541 165.2 44.4343H161.64C161.467 43.1733 161.145 42.0916 160.675 41.1891C160.206 40.2742 159.538 39.5696 158.673 39.0751C157.807 38.5805 156.676 38.3333 155.279 38.3333C154.08 38.3333 153.023 38.562 152.108 39.0194C151.206 39.4768 150.445 40.1259 149.827 40.9666C149.221 41.8072 148.764 42.8148 148.455 43.9892C148.146 45.1637 147.991 46.468 147.991 47.9021V50.628C147.991 51.9509 148.127 53.1933 148.399 54.3554C148.684 55.5175 149.11 56.5374 149.679 57.4152C150.248 58.2929 150.971 58.9853 151.848 59.4921C152.726 59.9866 153.765 60.2339 154.964 60.2339C156.485 60.2339 157.696 59.9928 158.599 59.5107C159.501 59.0285 160.181 58.3362 160.638 57.4337C161.108 56.5312 161.442 55.4495 161.64 54.1885Z" fill="#FF0000"/>
<path d="M192.954 48.4213V50.1273C192.954 52.1548 192.701 53.9722 192.194 55.5793C191.687 57.1865 190.958 58.5526 190.006 59.6776C189.054 60.8026 187.91 61.6618 186.575 62.2552C185.252 62.8486 183.769 63.1453 182.124 63.1453C180.53 63.1453 179.065 62.8486 177.729 62.2552C176.407 61.6618 175.257 60.8026 174.28 59.6776C173.316 58.5526 172.568 57.1865 172.036 55.5793C171.505 53.9722 171.239 52.1548 171.239 50.1273V48.4213C171.239 46.3938 171.499 44.5827 172.018 42.9879C172.549 41.3807 173.297 40.0146 174.262 38.8896C175.226 37.7522 176.369 36.8868 177.692 36.2934C179.027 35.7 180.492 35.4033 182.087 35.4033C183.732 35.4033 185.215 35.7 186.538 36.2934C187.873 36.8868 189.017 37.7522 189.969 38.8896C190.933 40.0146 191.668 41.3807 192.175 42.9879C192.695 44.5827 192.954 46.3938 192.954 48.4213ZM189.412 50.1273V48.3842C189.412 46.777 189.245 45.3553 188.911 44.1191C188.59 42.8828 188.114 41.8443 187.484 41.0036C186.853 40.163 186.08 39.5263 185.166 39.0936C184.263 38.6609 183.237 38.4446 182.087 38.4446C180.975 38.4446 179.967 38.6609 179.065 39.0936C178.174 39.5263 177.408 40.163 176.765 41.0036C176.135 41.8443 175.646 42.8828 175.3 44.1191C174.954 45.3553 174.781 46.777 174.781 48.3842V50.1273C174.781 51.7469 174.954 53.1809 175.3 54.4296C175.646 55.6659 176.141 56.7105 176.784 57.5635C177.439 58.4042 178.212 59.0409 179.102 59.4736C180.004 59.9063 181.012 60.1226 182.124 60.1226C183.286 60.1226 184.319 59.9063 185.221 59.4736C186.124 59.0409 186.884 58.4042 187.502 57.5635C188.133 56.7105 188.609 55.6659 188.93 54.4296C189.251 53.1809 189.412 51.7469 189.412 50.1273Z" fill="#FF0000"/>
<g clip-path="url(#clip0_40_64)">
<path d="M192.976 1.65332H192.945C192.115 1.65332 191.441 2.32666 191.441 3.15726V15.3407C191.441 16.1713 192.115 16.8447 192.945 16.8447H192.976C193.806 16.8447 194.48 16.1713 194.48 15.3407V3.15726C194.48 2.32666 193.806 1.65332 192.976 1.65332Z" fill="#FF7400"/>
<path d="M199.052 7.72949H186.869C186.038 7.72949 185.365 8.40283 185.365 9.23343V9.26382C185.365 10.0944 186.038 10.7678 186.869 10.7678H199.052C199.883 10.7678 200.556 10.0944 200.556 9.26382V9.23343C200.556 8.40283 199.883 7.72949 199.052 7.72949Z" fill="#FF7400"/>
</g>
<path d="M39.2691 0.567383C40.4844 0.567383 41.6085 0.881337 42.6415 1.50925C43.6746 2.13715 44.4949 3.16004 45.1025 4.5779C45.7305 5.9755 46.0444 7.83897 46.0444 10.1683C46.0444 11.971 45.9431 13.5813 45.7406 14.9992C45.5583 16.3968 45.2848 17.7032 44.9202 18.9185C44.5759 20.1136 44.1607 21.3289 43.6746 22.5644H40.2717C40.7578 21.3086 41.1731 20.0629 41.5174 18.8274C41.8617 17.5716 42.125 16.255 42.3073 14.8776C42.5099 13.48 42.6112 11.9406 42.6112 10.2595C42.6112 8.55803 42.4491 7.20093 42.125 6.18818C41.801 5.17542 41.3655 4.45636 40.8186 4.03101C40.292 3.58539 39.664 3.36259 38.9349 3.36259C38.2259 3.36259 37.6284 3.53476 37.1423 3.8791C36.6562 4.22343 36.2814 4.69943 36.0181 5.30708C35.7751 5.91473 35.6535 6.61353 35.6535 7.40349C35.6535 7.90986 35.6738 8.41624 35.7143 8.92262C35.7548 9.40874 35.7852 9.89487 35.8054 10.381C35.846 10.8469 35.8662 11.3127 35.8662 11.7786C35.8662 14.2295 35.5826 16.2752 35.0155 17.9159C34.4484 19.5566 33.5875 20.7921 32.433 21.6226C31.2784 22.453 29.8201 22.8683 28.0579 22.8683C26.3159 22.8683 24.8677 22.453 23.7131 21.6226C22.5586 20.7719 21.6876 19.5262 21.1002 17.8855C20.5331 16.2246 20.2495 14.1687 20.2495 11.7178C20.2495 9.2467 20.5331 7.19081 21.1002 5.55014C21.6876 3.88922 22.5586 2.64353 23.7131 1.81307C24.8677 0.982612 26.3058 0.567383 28.0275 0.567383C28.939 0.567383 29.7593 0.688913 30.4885 0.931975C31.2379 1.15478 31.8861 1.50925 32.433 1.99537C33.0001 2.48149 33.4558 3.1094 33.8002 3.8791H33.8913C34.1952 3.06889 34.6306 2.43085 35.1978 1.96499C35.7852 1.47886 36.4334 1.1244 37.1423 0.901591C37.8512 0.678785 38.5601 0.567383 39.2691 0.567383ZM28.0579 20.0731C29.0909 20.0731 29.9213 19.7692 30.5492 19.1616C31.1974 18.5539 31.6633 17.6424 31.9468 16.4271C32.2507 15.1916 32.4026 13.6218 32.4026 11.7178C32.4026 9.77333 32.2507 8.19344 31.9468 6.97813C31.6633 5.74257 31.1974 4.83108 30.5492 4.24369C29.9011 3.65629 29.0706 3.36259 28.0579 3.36259C27.0451 3.36259 26.2146 3.66642 25.5665 4.27407C24.9386 4.86147 24.4727 5.77295 24.1689 7.00851C23.8651 8.24407 23.7131 9.81384 23.7131 11.7178C23.7131 13.6421 23.8651 15.222 24.1689 16.4575C24.493 17.6931 24.969 18.6046 25.5969 19.192C26.2248 19.7794 27.0451 20.0731 28.0579 20.0731Z" fill="white"/>
<path d="M57.4571 22.8379C56.4241 22.8379 55.4418 22.6657 54.51 22.3214C53.5783 21.9568 52.7478 21.4302 52.0186 20.7415C51.3097 20.0528 50.7426 19.2122 50.3172 18.2197C49.9121 17.2272 49.7096 16.0828 49.7096 14.7865C49.7096 13.085 50.0539 11.6469 50.7426 10.4721C51.4312 9.27708 52.363 8.37573 53.5378 7.76808C54.7328 7.14017 56.0697 6.82621 57.5483 6.82621C58.9661 6.82621 60.2625 7.14017 61.4373 7.76808C62.6121 8.37573 63.5539 9.27708 64.2629 10.4721C64.9718 11.6672 65.3263 13.1053 65.3263 14.7865C65.3263 16.0828 65.1237 17.2373 64.7186 18.2501C64.3338 19.2426 63.7869 20.0832 63.0779 20.7719C62.369 21.4403 61.5385 21.9568 60.5866 22.3214C59.6346 22.6657 58.5914 22.8379 57.4571 22.8379ZM57.5179 20.0427C58.4091 20.0427 59.1687 19.83 59.7966 19.4046C60.4448 18.9793 60.9511 18.3716 61.3157 17.5817C61.6803 16.7917 61.8626 15.86 61.8626 14.7865C61.8626 13.713 61.6803 12.7913 61.3157 12.0217C60.9511 11.252 60.4448 10.6646 59.7966 10.2595C59.1484 9.8341 58.3787 9.62142 57.4875 9.62142C56.1912 9.62142 55.1481 10.0873 54.3581 11.019C53.5682 11.9305 53.1732 13.1863 53.1732 14.7865C53.1732 15.86 53.3453 16.7917 53.6897 17.5817C54.0543 18.3716 54.5607 18.9793 55.2088 19.4046C55.8772 19.83 56.6469 20.0427 57.5179 20.0427ZM59.2801 7.49463L56.2114 7.28195C56.3735 7.0794 56.495 6.8566 56.576 6.61353C56.6773 6.37047 56.728 6.11729 56.728 5.85397C56.728 5.42861 56.5963 5.08427 56.333 4.82096C56.0697 4.53738 55.7861 4.29432 55.4823 4.09177C55.1987 3.90948 54.9151 3.66642 54.6315 3.36259C54.3682 3.05876 54.1556 2.7043 53.9935 2.29919C53.8517 1.89409 53.8112 1.4181 53.872 0.871209H57.0925C57.0925 1.29657 57.2039 1.65103 57.4268 1.9346C57.6698 2.19792 57.9635 2.45111 58.3078 2.69417C58.7737 3.01825 59.1687 3.39297 59.4928 3.81833C59.8169 4.24369 59.9789 4.76019 59.9789 5.36785C59.9789 5.7932 59.9181 6.17805 59.7966 6.52239C59.6751 6.86673 59.5029 7.19081 59.2801 7.49463Z" fill="white"/>
<path d="M70.5252 22.5644C70.1607 21.5314 69.8366 20.4579 69.553 19.3439C69.2897 18.2298 69.077 16.9639 68.915 15.546C68.7529 14.1282 68.6719 12.4976 68.6719 10.6544C68.6719 8.24407 69.0162 6.29958 69.7049 4.82096C70.4138 3.34233 71.3557 2.26881 72.5305 1.60039C73.7053 0.911719 75.0219 0.567383 76.4803 0.567383C77.9386 0.567383 79.2552 0.911719 80.43 1.60039C81.6048 2.26881 82.5365 3.34233 83.2252 4.82096C83.9341 6.29958 84.2886 8.24407 84.2886 10.6544C84.2886 12.4976 84.2076 14.1282 84.0455 15.546C83.8835 16.9436 83.6708 18.2096 83.4075 19.3439C83.1442 20.4579 82.8201 21.5314 82.4353 22.5644H79.0932C79.4578 21.4909 79.7616 20.387 80.0046 19.2527C80.268 18.1184 80.4705 16.8728 80.6123 15.5157C80.7541 14.1383 80.825 12.5483 80.825 10.7456C80.825 8.94287 80.6427 7.50476 80.2781 6.43124C79.9338 5.33746 79.4274 4.55764 78.759 4.09177C78.1108 3.60565 77.3512 3.36259 76.4803 3.36259C75.6093 3.36259 74.8396 3.60565 74.1712 4.09177C73.523 4.55764 73.0166 5.33746 72.652 6.43124C72.3077 7.50476 72.1355 8.94287 72.1355 10.7456C72.1355 12.5483 72.2064 14.1383 72.3482 15.5157C72.49 16.893 72.6925 18.1488 72.9559 19.2831C73.2192 20.3971 73.5331 21.4909 73.8977 22.5644H70.5252Z" fill="white"/>
<path d="M108.039 22.5644C107.978 22.0378 107.765 21.5618 107.401 21.1365C107.036 20.7111 106.57 20.3364 106.003 20.0123C105.456 19.6882 104.838 19.4249 104.15 19.2223C103.461 18.9995 102.742 18.8375 101.992 18.7362C101.243 18.6147 100.514 18.5539 99.8049 18.5539C98.387 18.5539 97.1413 18.716 96.0678 19.0401C95.0146 19.3439 94.0423 19.7186 93.1511 20.1642L91.875 17.9463C92.2396 17.7437 92.6143 17.5614 92.9992 17.3994C93.384 17.2171 93.7891 17.0753 94.2145 16.974C94.6601 16.8525 95.1158 16.7715 95.5817 16.731V16.6398C94.4272 16.3765 93.3739 16.0018 92.4219 15.5157C91.4902 15.0295 90.68 14.4219 89.9913 13.6927C89.3229 12.9433 88.8064 12.0723 88.4418 11.0798C88.0974 10.0873 87.9253 8.953 87.9253 7.67693C87.9253 6.29958 88.1582 5.07415 88.6241 4.00063C89.1102 2.9271 89.8292 2.08652 90.7812 1.47886C91.7332 0.87121 92.908 0.567383 94.3056 0.567383C95.5007 0.567383 96.4932 0.850954 97.2831 1.4181C98.0731 1.96499 98.6402 2.72455 98.9846 3.6968H99.1365C99.4808 2.68404 100.048 1.91435 100.838 1.38772C101.628 0.840827 102.59 0.567383 103.724 0.567383C104.94 0.567383 105.922 0.850954 106.671 1.4181C107.441 1.96499 107.988 2.72455 108.312 3.6968H108.464C108.829 2.72455 109.396 1.96499 110.165 1.4181C110.955 0.850954 111.938 0.567383 113.113 0.567383C114.51 0.567383 115.685 0.891464 116.637 1.53963C117.589 2.18779 118.308 3.08914 118.794 4.24369C119.3 5.37797 119.554 6.69456 119.554 8.19344C119.554 9.40874 119.412 10.5532 119.128 11.6267C118.865 12.7002 118.45 13.7636 117.883 14.8169L114.844 13.7838C115.33 12.7913 115.665 11.8394 115.847 10.9279C116.049 10.0164 116.151 9.05428 116.151 8.04152C116.151 6.50213 115.857 5.33746 115.27 4.54751C114.682 3.75756 113.872 3.36259 112.839 3.36259C112.252 3.36259 111.745 3.54488 111.32 3.90948C110.895 4.25381 110.57 4.72981 110.348 5.33746C110.125 5.94512 110.013 6.64392 110.013 7.43387V10.9886H106.793V7.28195C106.793 6.53252 106.682 5.87422 106.459 5.30708C106.236 4.71968 105.902 4.25381 105.456 3.90948C105.01 3.54488 104.433 3.36259 103.724 3.36259C103.076 3.36259 102.519 3.52463 102.053 3.84871C101.608 4.17279 101.263 4.62853 101.02 5.21593C100.797 5.80333 100.686 6.492 100.686 7.28195V10.9886H97.4654V7.43387C97.4654 6.70468 97.3642 6.03626 97.1616 5.42861C96.9793 4.8007 96.6755 4.30445 96.2501 3.93986C95.845 3.55501 95.3083 3.36259 94.6398 3.36259C93.6271 3.36259 92.8169 3.71705 92.2092 4.42598C91.6218 5.13491 91.3281 6.25907 91.3281 7.79846C91.3281 9.11504 91.5611 10.2392 92.0269 11.1709C92.4928 12.1027 93.1612 12.8825 94.0322 13.5104C94.9032 14.1181 95.9362 14.6042 97.1312 14.9688C98.3465 15.3334 99.6834 15.5967 101.142 15.7587C102.418 15.9005 103.623 16.1334 104.757 16.4575C105.912 16.7816 106.955 17.2171 107.887 17.764C108.818 18.3109 109.578 18.9793 110.165 19.7692C110.773 20.5592 111.148 21.4909 111.29 22.5644H108.039Z" fill="white"/>
<path d="M125.06 22.5644C124.695 21.5314 124.371 20.4579 124.088 19.3439C123.824 18.2298 123.612 16.9639 123.45 15.546C123.287 14.1282 123.206 12.4976 123.206 10.6544C123.206 8.24407 123.551 6.29958 124.239 4.82096C124.948 3.34233 125.89 2.26881 127.065 1.60039C128.24 0.911719 129.556 0.567383 131.015 0.567383C132.473 0.567383 133.79 0.911719 134.965 1.60039C136.139 2.26881 137.071 3.34233 137.76 4.82096C138.469 6.29958 138.823 8.24407 138.823 10.6544C138.823 12.4976 138.742 14.1282 138.58 15.546C138.418 16.9436 138.205 18.2096 137.942 19.3439C137.679 20.4579 137.355 21.5314 136.97 22.5644H133.628C133.992 21.4909 134.296 20.387 134.539 19.2527C134.802 18.1184 135.005 16.8728 135.147 15.5157C135.289 14.1383 135.36 12.5483 135.36 10.7456C135.36 8.94287 135.177 7.50476 134.813 6.43124C134.468 5.33746 133.962 4.55764 133.293 4.09177C132.645 3.60565 131.886 3.36259 131.015 3.36259C130.144 3.36259 129.374 3.60565 128.706 4.09177C128.058 4.55764 127.551 5.33746 127.187 6.43124C126.842 7.50476 126.67 8.94287 126.67 10.7456C126.67 12.5483 126.741 14.1383 126.883 15.5157C127.025 16.893 127.227 18.1488 127.49 19.2831C127.754 20.3971 128.068 21.4909 128.432 22.5644H125.06Z" fill="white"/>
<path d="M150.663 22.8683C148.192 22.8683 146.308 22.1999 145.012 20.863C143.716 19.5059 143.067 17.5716 143.067 15.0599V0.871209H146.349V15.3334C146.349 16.2854 146.501 17.1158 146.805 17.8247C147.129 18.5337 147.605 19.0907 148.233 19.4958C148.86 19.8806 149.671 20.0731 150.663 20.0731C151.615 20.0731 152.395 19.8908 153.003 19.5262C153.63 19.1413 154.096 18.635 154.4 18.007C154.704 17.3791 154.856 16.7006 154.856 15.9714C154.856 15.1004 154.704 14.3814 154.4 13.8142C154.117 13.2268 153.772 12.6799 153.367 12.1736C152.861 11.5051 152.415 10.776 152.03 9.98601C151.645 9.19606 151.494 8.24407 151.575 7.13004H154.977C154.957 7.9605 155.119 8.67956 155.464 9.28721C155.808 9.87461 156.213 10.4823 156.679 11.1102C157.125 11.7178 157.509 12.3964 157.833 13.1458C158.158 13.8953 158.32 14.827 158.32 15.941C158.32 17.3184 158.006 18.5337 157.378 19.5869C156.75 20.6199 155.859 21.4302 154.704 22.0176C153.549 22.5847 152.203 22.8683 150.663 22.8683Z" fill="white"/>
<path d="M163.513 22.5644C163.148 21.5314 162.824 20.4579 162.541 19.3439C162.277 18.2298 162.065 16.9639 161.903 15.546C161.741 14.1282 161.66 12.4976 161.66 10.6544C161.66 8.24407 162.004 6.29958 162.693 4.82096C163.401 3.34233 164.343 2.26881 165.518 1.60039C166.693 0.911719 168.009 0.567383 169.468 0.567383C170.926 0.567383 172.243 0.911719 173.418 1.60039C174.592 2.26881 175.524 3.34233 176.213 4.82096C176.922 6.29958 177.276 8.24407 177.276 10.6544C177.276 12.4976 177.195 14.1282 177.033 15.546C176.871 16.9436 176.658 18.2096 176.395 19.3439C176.132 20.4579 175.808 21.5314 175.423 22.5644H172.081C172.445 21.4909 172.749 20.387 172.992 19.2527C173.256 18.1184 173.458 16.8728 173.6 15.5157C173.742 14.1383 173.813 12.5483 173.813 10.7456C173.813 8.94287 173.63 7.50476 173.266 6.43124C172.921 5.33746 172.415 4.55764 171.747 4.09177C171.098 3.60565 170.339 3.36259 169.468 3.36259C168.597 3.36259 167.827 3.60565 167.159 4.09177C166.511 4.55764 166.004 5.33746 165.64 6.43124C165.295 7.50476 165.123 8.94287 165.123 10.7456C165.123 12.5483 165.194 14.1383 165.336 15.5157C165.478 16.893 165.68 18.1488 165.943 19.2831C166.207 20.3971 166.521 21.4909 166.885 22.5644H163.513Z" fill="white"/>
<g clip-path="url(#clip1_40_64)">
<path d="M8.16714 1.65332H8.13676C7.30615 1.65332 6.63281 2.32666 6.63281 3.15726V15.3407C6.63281 16.1713 7.30615 16.8447 8.13676 16.8447H8.16714C8.99774 16.8447 9.67108 16.1713 9.67108 15.3407V3.15726C9.67108 2.32666 8.99774 1.65332 8.16714 1.65332Z" fill="#FF7400"/>
<path d="M14.2435 7.72949H2.06009C1.22949 7.72949 0.556152 8.40283 0.556152 9.23343V9.26382C0.556152 10.0944 1.22949 10.7678 2.06009 10.7678H14.2435C15.0742 10.7678 15.7475 10.0944 15.7475 9.26382V9.23343C15.7475 8.40283 15.0742 7.72949 14.2435 7.72949Z" fill="#FF7400"/>
</g>
<defs>
<clipPath id="clip0_40_64">
<rect width="15.1913" height="15.1913" fill="white" transform="translate(185.365 1.65332)"/>
</clipPath>
<clipPath id="clip1_40_64">
<rect width="15.1913" height="15.1913" fill="white" transform="translate(0.556152 1.65332)"/>
</clipPath>
</defs>
</svg>
