<svg width="101" height="101" viewBox="0 0 101 101" fill="none" xmlns="http://www.w3.org/2000/svg">
<g clip-path="url(#clip0_73_116)">
<path d="M100.845 31.3878C100.845 31.3878 100.845 31.3878 95.177 28.1728C89.5094 24.9619 91.0845 24.3024 88.5637 19.2636C86.0462 14.2242 78.1718 14.2242 78.1718 14.2242L11.0986 28.6028L82.1107 40.7148L100.845 31.3878Z" fill="#EDEFF1"/>
<path d="M81.4793 42.3095L11.0988 29.9089V43.0383L0.845703 47.1315V55.9472L18.135 58.4737L22.1606 80.0786C22.3998 81.3632 22.7865 81.3632 23.0275 80.0786L26.8166 59.7411L37.3939 61.2882V77.1632L32.7878 76.8247V81.2285L52.0373 82.6438V78.2446L47.6669 77.9195V62.7847L63.1389 65.0458L67.19 86.7852C67.4283 88.0677 67.8173 88.0677 68.0574 86.7852L71.8701 66.3213L75.9534 66.9173L76.1275 58.4669L81.4793 55.3202V42.3095ZM44.8341 77.713L40.2298 77.3745V61.7024L44.8341 62.3756V77.713ZM71.4035 60.7907L6.45405 51.5806L16.4914 47.4457L17.9572 47.6615L13.6161 50.5954L15.9786 51.2231L18.9649 47.8099L23.3696 48.4575L19.2819 51.2213L21.6439 51.8495L24.4713 48.6181L28.7872 49.2555L24.9472 51.8495L27.3092 52.4795L29.9774 49.4278L39.6176 50.8499L36.2754 53.1068L38.6374 53.737L40.988 51.0513L45.0316 51.6457L41.9412 53.737L44.3032 54.367L46.4925 51.8603L55.8629 53.2415L53.2702 54.996L55.6309 55.6242L57.5065 53.4834L66.6922 54.8391L64.6 56.2562L66.9621 56.8835L68.5164 55.1062L75.7735 56.1767L71.4035 60.7907Z" fill="#EDEFF1"/>
<path d="M82.9756 56.5015L77.4644 59.6471V67.1281L100.846 51.2231V33.3115L82.9756 42.4867V56.5015Z" fill="#EDEFF1"/>
</g>
<defs>
<clipPath id="clip0_73_116">
<rect width="100" height="100" fill="white" transform="translate(0.845703 0.985596)"/>
</clipPath>
</defs>
</svg>
