<svg width="101" height="101" viewBox="0 0 101 101" fill="none" xmlns="http://www.w3.org/2000/svg">
<g clip-path="url(#clip0_70_92)">
<path d="M31.4288 35.6606C31.7538 35.9856 32.1805 36.1489 32.6071 36.1489C33.0338 36.1489 33.4605 35.9856 33.7855 35.6606C34.4371 35.0089 34.4371 33.9556 33.7855 33.3039C32.0938 31.6106 32.0938 28.8573 33.7855 27.1639C35.2355 25.7139 36.0355 23.7873 36.0355 21.7373C36.0355 19.6873 35.2371 17.7606 33.7855 16.3106C33.1338 15.6589 32.0805 15.6589 31.4288 16.3106C30.7771 16.9623 30.7771 18.0156 31.4288 18.6673C32.2488 19.4873 32.7021 20.5773 32.7021 21.7373C32.7021 22.8973 32.2505 23.9873 31.4288 24.8073C28.4371 27.7989 28.4371 32.6689 31.4288 35.6606Z" fill="#EDEFF1"/>
<path d="M68.0958 35.6606C68.4208 35.9856 68.8475 36.1489 69.2741 36.1489C69.7008 36.1489 70.1275 35.9856 70.4525 35.6606C71.1041 35.0089 71.1041 33.9556 70.4525 33.3039C68.7608 31.6106 68.7608 28.8573 70.4525 27.1639C71.9025 25.7139 72.7025 23.7873 72.7025 21.7373C72.7025 19.6873 71.9041 17.7606 70.4525 16.3106C69.8008 15.6589 68.7475 15.6589 68.0958 16.3106C67.4441 16.9623 67.4441 18.0156 68.0958 18.6673C68.9158 19.4873 69.3691 20.5773 69.3691 21.7373C69.3691 22.8973 68.9175 23.9873 68.0958 24.8073C65.1041 27.7989 65.1041 32.6689 68.0958 35.6606Z" fill="#EDEFF1"/>
<path d="M49.7623 25.6606C50.0873 25.9856 50.514 26.1489 50.9406 26.1489C51.3673 26.1489 51.794 25.9856 52.119 25.6606C52.7706 25.0089 52.7706 23.9556 52.119 23.3039C50.4273 21.6106 50.4273 18.8573 52.119 17.1639C53.569 15.7139 54.369 13.7873 54.369 11.7373C54.369 9.68726 53.5706 7.76059 52.119 6.31059C51.4673 5.65892 50.414 5.65892 49.7623 6.31059C49.1106 6.96226 49.1106 8.01559 49.7623 8.66726C50.5823 9.48726 51.0356 10.5773 51.0356 11.7373C51.0356 12.8973 50.584 13.9873 49.7623 14.8073C46.7706 17.7989 46.7706 22.6689 49.7623 25.6606Z" fill="#EDEFF1"/>
<path d="M43.0873 48.6689C43.209 48.6689 43.3323 48.6556 43.4556 48.6289C45.8523 48.0889 48.3306 47.8156 50.824 47.8156C50.8306 47.8156 50.8373 47.8156 50.8456 47.8156C51.7656 47.8156 52.5123 47.0706 52.5123 46.1506C52.5123 45.2289 51.7673 44.4822 50.8456 44.4822C50.839 44.4822 50.8306 44.4822 50.8223 44.4822C48.084 44.4822 45.359 44.7839 42.7223 45.3772C41.824 45.5789 41.2606 46.4706 41.4623 47.3689C41.639 48.1439 42.3256 48.6689 43.0873 48.6689Z" fill="#EDEFF1"/>
<path d="M17.214 76.1206C17.3157 76.1406 17.4157 76.1489 17.514 76.1489C18.304 76.1489 19.0057 75.5856 19.1523 74.7822C20.884 65.2856 26.6073 56.8356 34.4623 52.1822C35.254 51.7139 35.5157 50.6906 35.0473 49.8989C34.5773 49.1072 33.5557 48.8456 32.764 49.3139C24.0907 54.4522 17.7773 63.7489 15.874 74.1822C15.7073 75.0889 16.3073 75.9556 17.214 76.1206Z" fill="#EDEFF1"/>
<path d="M93.5524 73.8539C90.5324 56.1189 76.7074 42.0273 59.1074 38.6139C59.1357 38.3473 59.179 38.0789 59.179 37.8139C59.179 33.2189 55.4407 29.4806 50.8457 29.4806C46.2507 29.4806 42.5124 33.2189 42.5124 37.8139C42.5124 38.0789 42.554 38.3473 42.584 38.6139C24.984 42.0273 11.159 56.1189 8.13904 73.8539C4.6557 75.8256 0.845703 78.7273 0.845703 81.9823C0.845703 90.4573 26.699 96.1489 50.8457 96.1489C74.9924 96.1489 100.846 90.4573 100.846 81.9823C100.846 78.7273 97.0357 75.8256 93.5524 73.8539ZM45.8557 38.1023C45.849 38.0056 45.8457 37.9089 45.8457 37.8156C45.8457 35.0589 48.089 32.8156 50.8457 32.8156C53.6024 32.8156 55.8457 35.0589 55.8457 37.8156C55.8457 37.9106 55.8424 38.0056 55.8357 38.1023C55.7574 38.0939 55.679 38.0906 55.6024 38.0823C55.029 38.0189 54.4524 37.9739 53.8724 37.9339C53.659 37.9189 53.4474 37.8973 53.234 37.8856C52.444 37.8423 51.649 37.8173 50.8474 37.8173C50.0457 37.8173 49.2507 37.8423 48.4607 37.8856C48.2474 37.8973 48.0357 37.9189 47.8224 37.9339C47.2424 37.9739 46.6657 38.0206 46.0924 38.0823C46.0124 38.0906 45.934 38.0923 45.8557 38.1023ZM44.844 41.5989C45.739 41.4656 46.639 41.3689 47.5424 41.2956C47.7274 41.2806 47.9124 41.2673 48.0974 41.2539C49.9274 41.1306 51.7657 41.1306 53.5957 41.2539C53.7807 41.2673 53.9657 41.2806 54.1507 41.2956C55.054 41.3689 55.954 41.4656 56.849 41.5989C74.2124 44.2239 87.944 58.0523 90.4357 75.4589C90.5124 75.9939 90.574 76.5306 90.629 77.0673C90.6474 77.2523 90.6724 77.4356 90.689 77.6206C90.754 78.3589 90.8024 79.0973 90.8257 79.8356C64.6424 85.9039 37.0524 85.9039 10.869 79.8356C10.894 79.0973 10.9407 78.3589 11.0057 77.6206C11.0224 77.4356 11.0457 77.2523 11.0657 77.0673C11.1207 76.5289 11.1824 75.9923 11.259 75.4589C13.749 58.0523 27.4807 44.2223 44.844 41.5989ZM50.8457 92.8156C22.3524 92.8156 4.17904 85.7006 4.17904 81.9823C4.17904 81.3439 4.96904 79.9373 7.61904 78.1023C7.61237 78.1973 7.6157 78.2906 7.60904 78.3856C7.55237 79.2989 7.51237 80.2189 7.51237 81.1489V82.4623L8.7907 82.7706C22.5474 86.0706 36.6974 87.7239 50.8457 87.7239C64.994 87.7239 79.144 86.0723 92.9007 82.7706L94.179 82.4623V81.1489C94.179 80.2189 94.139 79.3006 94.0824 78.3856C94.0757 78.2906 94.079 78.1973 94.0724 78.1023C96.7224 79.9373 97.5124 81.3439 97.5124 81.9823C97.5124 85.7006 79.339 92.8156 50.8457 92.8156Z" fill="#EDEFF1"/>
</g>
<defs>
<clipPath id="clip0_70_92">
<rect width="100" height="100" fill="white" transform="translate(0.845703 0.985596)"/>
</clipPath>
</defs>
</svg>
