<svg width="151" height="151" viewBox="0 0 151 151" fill="none" xmlns="http://www.w3.org/2000/svg">
<g clip-path="url(#clip0_91_1203)">
<path d="M98.7793 17.6108C99.7793 16.4858 100.342 15.0483 100.342 13.4858V7.23584C100.342 3.79834 97.5293 0.98584 94.0918 0.98584H56.5918C53.1543 0.98584 50.3418 3.79834 50.3418 7.23584V13.4858C50.3418 15.0483 50.9043 16.4858 51.9043 17.6108C25.4668 27.1733 6.5918 52.4858 6.5918 82.2358C6.5918 120.236 37.3418 150.986 75.3418 150.986C113.342 150.986 144.092 120.236 144.092 82.2358C144.092 52.4858 125.217 27.1733 98.7793 17.6108ZM75.3418 138.486C44.3418 138.486 19.0918 113.236 19.0918 82.2358C19.0918 51.2358 44.3418 25.9858 75.3418 25.9858C106.342 25.9858 131.592 51.2358 131.592 82.2358C131.592 113.236 106.342 138.486 75.3418 138.486Z" fill="#4F4F4F"/>
<path d="M119.092 88.4858C119.092 91.9233 116.279 94.7358 112.842 94.7358H75.3418C71.9043 94.7358 69.0918 91.9233 69.0918 88.4858V50.9858C69.0918 47.5483 71.9043 44.7358 75.3418 44.7358C78.7793 44.7358 81.5918 47.5483 81.5918 50.9858V82.2358H112.842C116.279 82.2358 119.092 85.0483 119.092 88.4858Z" fill="#4F4F4F"/>
</g>
<defs>
<clipPath id="clip0_91_1203">
<rect width="150" height="150" fill="white" transform="translate(0.341797 0.98584)"/>
</clipPath>
</defs>
</svg>
