<svg width="151" height="151" viewBox="0 0 151 151" fill="none" xmlns="http://www.w3.org/2000/svg">
<g clip-path="url(#clip0_91_1182)">
<path d="M133.987 40.392L129.502 44.9437C140.325 57.7077 146.288 74.7143 144.463 93.092C141.444 123.485 116.818 147.912 86.4039 150.707C50.4509 154.01 19.7936 127.577 16.2372 93.2189H9.9012C6.04899 93.2189 3.64139 89.0486 5.56762 85.7126L19.7389 61.1733C21.6652 57.8378 26.4799 57.838 28.4059 61.1736L42.574 85.7133C44.5002 89.0491 42.0926 93.2192 38.2404 93.2192H32.7245C36.3083 118.871 60.1894 138.109 87.5706 134.096C107.832 131.127 124.267 115.141 127.711 94.9547C132.866 64.7412 109.616 38.4454 80.3407 38.4454C70.847 38.4454 61.684 41.1996 53.8127 46.416C50.1598 48.8366 45.0961 48.3577 42.4162 44.8905C39.498 41.1157 40.4093 35.7265 44.3002 33.0991C52.7451 27.3942 62.3186 23.829 72.3487 22.5878V13.2858H65.784C63.5252 13.2858 61.6943 11.455 61.6943 9.19613V5.07555C61.6943 2.81697 63.5257 0.98584 65.784 0.98584H96.2277C98.4865 0.98584 100.317 2.81697 100.317 5.07555V9.19613C100.317 11.4547 98.4865 13.2858 96.2277 13.2858H88.997V22.6849C101.873 24.4221 113.546 29.9839 122.855 38.1716L127.016 33.9488L123.967 31.1304C122.309 29.5976 122.207 27.0099 123.74 25.3513L127.002 21.8219C128.535 20.163 131.123 20.0613 132.781 21.5944L145.113 32.9927C146.772 34.5258 146.873 37.1133 145.34 38.7719L142.078 42.301C140.545 43.9596 137.958 44.0616 136.299 42.5285L133.987 40.392ZM89.2865 78.0054C83.6287 72.2285 73.8975 72.8562 69.1272 79.9834C66.2635 84.2616 66.3073 90.0439 69.2002 94.302C72.7159 99.4763 78.9056 101.164 84.1853 99.3736L100.623 112.763C103.766 115.323 107.931 111.195 105.4 108.029L92.2022 91.5233C93.8502 86.977 92.8965 81.6917 89.2865 78.0054Z" fill="#4F4F4F"/>
</g>
<defs>
<clipPath id="clip0_91_1182">
<rect width="150" height="150" fill="white" transform="translate(0.658203 0.98584)"/>
</clipPath>
</defs>
</svg>
