<svg width="151" height="151" viewBox="0 0 151 151" fill="none" xmlns="http://www.w3.org/2000/svg">
<g clip-path="url(#clip0_91_1122)">
<path d="M95.8771 57.3526L102.489 61.1788C103.07 61.5155 104.019 61.5155 104.601 61.1788L108.366 58.9749C108.947 58.6382 108.947 58.0872 108.366 57.7505L101.754 53.9244C101.172 53.5877 100.224 53.5877 99.642 53.9244L95.8771 56.1283C95.2955 56.465 95.2955 57.0159 95.8771 57.3526Z" fill="#4F4F4F"/>
<path d="M146.841 69.9329L146.872 52.1796C146.872 52.1184 146.872 52.0878 146.872 52.0266V51.9959C146.811 51.598 146.535 51.2001 146.015 50.8634L60.4317 1.49089C59.2686 0.81749 57.3402 0.81749 56.1771 1.49089L5.15167 31.1205C4.47827 31.5184 4.20279 32.0388 4.32523 32.5591V49.3942L4.2334 49.4554L4.32523 49.5166V66.0149L4.2334 66.0761L4.32523 66.1374V82.6663L4.2334 82.7275L4.32523 82.7887V99.3483L86.8474 147.129L91.7755 149.976L93.4896 150.986L146.749 120.04L146.78 103.327V103.297L146.841 69.9329L146.872 69.9023L146.841 69.9329ZM26.9454 27.7841C26.4556 27.5086 25.9659 27.2638 25.4149 27.0495L49.1982 13.2448C49.5655 13.5509 49.9634 13.857 50.4532 14.1325C54.7997 16.6424 61.8398 16.6424 66.1557 14.1325C66.6454 13.857 67.0739 13.5509 67.4412 13.2142L125.292 46.5781C124.527 46.8536 123.793 47.1597 123.15 47.5576C118.834 50.0676 118.865 54.1386 123.211 56.6485C123.884 57.0464 124.619 57.3525 125.415 57.628L101.417 71.5858C100.958 71.1266 100.377 70.6981 99.7032 70.3308C95.3568 67.8209 88.3167 67.8209 84.0008 70.3308C83.6641 70.5145 83.3886 70.7287 83.1131 70.943L25.4149 37.6403C25.9659 37.426 26.4862 37.1811 27.0066 36.875C31.3225 34.3651 31.2919 30.2941 26.9454 27.7841ZM140.444 116L93.459 143.272L10.6307 95.3691V86.4312L86.7556 130.417L91.6837 133.263L93.4284 134.273L140.444 106.909V116ZM140.444 99.2258L93.3672 126.56L10.6307 78.7177V69.7798L86.8474 113.857L91.7755 116.704L93.4896 117.714L140.444 90.4104V99.2258ZM140.444 82.1765L93.459 110L10.6307 62.1276V53.1591L86.7556 97.1444L91.6837 99.9911L93.4284 101.001L140.444 73.6672V82.1765ZM140.444 65.9231L93.3672 93.257L10.6307 45.5068V36.7526L90.7348 83.003C91.9285 83.6764 93.8263 83.6764 94.9894 83.003L140.444 56.5873V65.9231Z" fill="#4F4F4F"/>
<path d="M42.8009 26.7129L49.4125 30.539C49.9941 30.8757 50.943 30.8757 51.5245 30.539L55.2894 28.3352C55.871 27.9985 55.871 27.4475 55.2894 27.1108L48.6779 23.3153C48.0963 22.9786 47.1474 22.9786 46.5658 23.3153L42.8009 25.4885C42.2194 25.8252 42.2194 26.3762 42.8009 26.7129Z" fill="#4F4F4F"/>
<path d="M92.5102 32.4061C83.1132 26.9883 67.9004 26.9883 58.5341 32.4061C49.1983 37.8239 49.2595 46.6394 58.6565 52.0572C68.0535 57.475 83.2662 57.475 92.602 52.0572C101.938 46.6394 101.877 37.8239 92.5102 32.4061ZM72.9203 45.0783H66.3088V41.2522V37.5485L72.9203 37.5791V41.2828L88.0413 41.3134V45.1395L72.9203 45.0783Z" fill="#4F4F4F"/>
</g>
<defs>
<clipPath id="clip0_91_1122">
<rect width="150" height="150" fill="white" transform="translate(0.552734 0.98584)"/>
</clipPath>
</defs>
</svg>
