<svg width="101" height="101" viewBox="0 0 101 101" fill="none" xmlns="http://www.w3.org/2000/svg">
<g clip-path="url(#clip0_73_139)">
<path d="M100.846 58.7106V40.9856H98.7224C92.2374 40.9856 86.3507 43.5306 81.9574 47.6523H79.179V45.9856H80.8457C81.7657 45.9856 82.5124 45.2406 82.5124 44.3189C82.5124 43.3973 81.7657 42.6523 80.8457 42.6523H79.179H65.8457H64.179C63.259 42.6523 62.5124 43.3973 62.5124 44.3189C62.5124 45.2406 63.259 45.9856 64.179 45.9856H65.8457V47.6523H58.0357C58.7574 46.1723 59.179 44.0539 59.179 40.9856C59.179 37.8489 58.7557 36.7906 58.0074 35.1873C57.814 34.7739 57.594 34.3073 57.3524 33.7006L56.934 32.6523H52.5124V28.3423L55.3574 25.4973C56.009 24.8456 56.009 23.7923 55.3574 23.1406C54.7057 22.4889 53.6524 22.4889 53.0007 23.1406L52.5124 23.629V22.6523V20.9856V20.7489C55.379 20.0039 57.5124 17.4173 57.5124 14.3189V10.9856H52.5124V7.65228H44.179V15.9856C44.179 19.0839 46.3124 21.6706 49.179 22.4156V26.9623L48.6907 26.4739C48.039 25.8223 46.9857 25.8223 46.334 26.4739C45.6824 27.1256 45.6824 28.1789 46.334 28.8306L49.179 31.6756V32.6523H44.7574L44.339 33.7023C44.0974 34.3073 43.879 34.7756 43.684 35.1889C42.9357 36.7906 42.5124 37.8489 42.5124 40.9856C42.5124 44.0539 42.934 46.1723 43.6557 47.6523H35.8457V45.9856H37.5124C38.4324 45.9856 39.179 45.2406 39.179 44.3189C39.179 43.3973 38.4324 42.6523 37.5124 42.6523H35.8457H22.5124H20.8457C19.9257 42.6523 19.179 43.3973 19.179 44.3189C19.179 45.2406 19.9257 45.9856 20.8457 45.9856H22.5124V47.6523H19.7324C15.3407 43.5306 9.45237 40.9856 2.96737 40.9856H0.845703V58.7106C0.845703 63.2806 4.3057 67.0189 8.73737 67.5456L2.56237 92.2489C2.33904 93.1406 2.88237 94.0456 3.7757 94.269C3.9107 94.3023 4.0457 94.3189 4.1807 94.3189C4.92737 94.3189 5.6057 93.8139 5.7957 93.0556L11.764 69.1806L19.254 93.1489C19.4774 93.8639 20.1357 94.3189 20.8457 94.3189C21.0107 94.3189 21.179 94.2939 21.344 94.2423C22.2224 93.9689 22.7124 93.0323 22.4374 92.1556L14.779 67.6523H27.5124V65.5289C27.5124 62.7723 27.034 60.1289 26.1924 57.6523H40.8457V64.3189H45.8457V77.6523C45.8457 85.0039 39.864 90.9856 32.5124 90.9856H25.8457C24.9257 90.9856 24.179 91.7306 24.179 92.6523C24.179 93.5739 24.9257 94.3189 25.8457 94.3189H32.5124H69.179H75.8457C76.7657 94.3189 77.5124 93.5739 77.5124 92.6523C77.5124 91.7306 76.7657 90.9856 75.8457 90.9856H69.179C61.8274 90.9856 55.8457 85.0039 55.8457 77.6523V64.3189H60.8457V57.6523H75.499C74.6574 60.1289 74.179 62.7706 74.179 65.5289V67.6523H85.3774L79.229 92.2489C79.0057 93.1406 79.549 94.0456 80.4424 94.269C80.5774 94.3023 80.7124 94.3189 80.8474 94.3189C81.594 94.3189 82.2724 93.8139 82.4624 93.0556L88.4307 69.1806L95.9207 93.1489C96.144 93.8639 96.8024 94.3189 97.5124 94.3189C97.6774 94.3189 97.8457 94.2939 98.0107 94.2423C98.889 93.9689 99.379 93.0323 99.104 92.1556L91.4457 67.6523H91.9024C96.834 67.6523 100.846 63.6406 100.846 58.7106ZM69.179 45.9856H75.8457V47.6523H69.179V45.9856ZM54.179 14.3189C54.179 15.5506 53.5074 16.6289 52.5124 17.2039V14.3189H54.179ZM47.5124 15.9856V10.9856H49.179V18.8706C48.184 18.2956 47.5124 17.2173 47.5124 15.9856ZM45.8457 40.9856C45.8457 38.4373 46.1157 37.8623 46.704 36.5989C46.794 36.4073 46.889 36.2056 46.9874 35.9856H54.704C54.8024 36.2056 54.8974 36.4073 54.9874 36.5989C55.5757 37.8623 55.8457 38.4373 55.8457 40.9856C55.8457 47.6523 54.279 47.6523 50.8457 47.6523C47.4124 47.6523 45.8457 47.6523 45.8457 40.9856ZM25.8457 45.9856H32.5124V47.6523H25.8457V45.9856ZM9.78904 64.3189C6.6957 64.3189 4.17904 61.8023 4.17904 58.7106V44.3539C10.864 44.7323 16.7274 48.2206 20.349 53.3906C21.0624 54.4206 21.6907 55.5189 22.2257 56.6823L22.404 57.0706C23.384 59.3139 23.999 61.7539 24.144 64.3189H9.78904ZM57.5124 60.9856H52.5124V77.6523C52.5124 83.0989 55.1374 87.9423 59.189 90.9856H42.5024C46.554 87.9423 49.179 83.0989 49.179 77.6523V60.9856H44.179V57.6523H57.5124V60.9856ZM76.909 54.3189H60.8457H40.8457H24.7824C24.7707 54.2956 24.7557 54.2723 24.7424 54.2489C24.5407 53.8606 24.3224 53.4839 24.1007 53.1089C23.9307 52.8189 23.759 52.5306 23.5774 52.2489C23.4024 51.9789 23.2257 51.7139 23.0407 51.4506C22.934 51.2973 22.8374 51.1356 22.7274 50.9839H35.8457H65.8457H78.9624C78.8524 51.1339 78.7557 51.2973 78.649 51.4506C78.464 51.7123 78.2874 51.9789 78.1124 52.2489C77.9324 52.5306 77.759 52.8189 77.589 53.1089C77.3674 53.4839 77.149 53.8606 76.9474 54.2489C76.9357 54.2723 76.9207 54.2956 76.909 54.3189ZM79.2857 57.0706L79.464 56.6823C79.999 55.5189 80.6274 54.4189 81.3407 53.3906C84.9624 48.2206 90.8274 44.7323 97.5107 44.3539V58.7106C97.5124 61.8023 94.9957 64.3189 91.9024 64.3189H77.5457C77.6907 61.7539 78.3057 59.3139 79.2857 57.0706Z" fill="#EDEFF1"/>
</g>
<defs>
<clipPath id="clip0_73_139">
<rect width="100" height="100" fill="white" transform="translate(0.845703 0.985596)"/>
</clipPath>
</defs>
</svg>
