<svg width="151" height="151" viewBox="0 0 151 151" fill="none" xmlns="http://www.w3.org/2000/svg">
<g clip-path="url(#clip0_91_1144)">
<path d="M139.947 68.7679L136.062 53.2303C137.124 53.0047 137.921 52.0625 137.921 50.9337V48.4285C137.921 42.9893 133.496 38.5643 128.057 38.5643H110.364V33.3969C110.364 30.7203 108.187 28.543 105.51 28.543H15.3219C12.6453 28.543 10.468 30.7203 10.468 33.3969V75.9857C10.468 77.2827 11.5194 78.3345 12.8167 78.3345C14.1137 78.3345 15.1654 77.283 15.1654 75.9857V33.3969C15.1654 33.3107 15.2354 33.2404 15.3219 33.2404H105.51C105.596 33.2404 105.666 33.311 105.666 33.3969V75.9863C105.666 77.2833 106.718 78.3351 108.015 78.3351C109.312 78.3351 110.364 77.2836 110.364 75.9863V73.3238H138.069C138.072 73.3238 138.073 73.3244 138.075 73.3244C138.078 73.3244 138.08 73.3241 138.082 73.3241C141.491 73.3265 144.386 75.5642 145.38 78.6477H138.077C136.78 78.6477 135.729 79.6991 135.729 80.9964V86.0067C135.729 90.0646 139.03 93.3658 143.088 93.3658H145.75V103.7H139.608C137.591 97.8743 132.054 93.6787 125.551 93.6787C119.049 93.6787 113.511 97.8743 111.494 103.7H110.363V86.0065C110.363 84.7095 109.312 83.6577 108.014 83.6577C106.717 83.6577 105.666 84.7092 105.666 86.0065V103.699H56.9366C54.9192 97.8737 49.3818 93.6781 42.8794 93.6781C36.377 93.6781 30.8393 97.8737 28.8222 103.699H15.3219C15.2354 103.699 15.1654 103.629 15.1654 103.543V98.3756H25.3429C26.6398 98.3756 27.6916 97.3241 27.6916 96.0269C27.6916 94.7296 26.6401 93.6781 25.3429 93.6781H12.8185C12.8179 93.6781 12.8176 93.6781 12.817 93.6781C12.8164 93.6781 12.8161 93.6781 12.8155 93.6781H2.796C1.49902 93.6781 0.447266 94.7296 0.447266 96.0269C0.447266 97.3241 1.49873 98.3756 2.796 98.3756H10.4683V103.543C10.4683 106.219 12.6456 108.397 15.3222 108.397H28.0089C28.0083 108.449 28.0048 108.501 28.0048 108.553C28.0048 116.755 34.6777 123.428 42.8794 123.428C51.0811 123.428 57.754 116.755 57.754 108.553C57.754 108.501 57.7505 108.449 57.7499 108.397H110.681C110.68 108.449 110.676 108.501 110.676 108.553C110.676 116.755 117.349 123.428 125.551 123.428C133.753 123.428 140.426 116.755 140.426 108.553C140.426 108.501 140.422 108.449 140.422 108.397H148.098C149.395 108.397 150.447 107.345 150.447 106.048V80.9958C150.447 74.8106 145.884 69.6717 139.947 68.7679ZM110.364 43.2614H128.057C130.906 43.2614 133.224 45.5794 133.224 48.4285V48.585H110.364V43.2614ZM110.364 68.6267V53.2821H131.233L135.07 68.6267H110.364ZM42.8794 118.731C37.2676 118.731 32.702 114.166 32.702 108.554C32.702 102.942 37.2676 98.3762 42.8794 98.3762C48.4912 98.3762 53.0568 102.942 53.0568 108.554C53.0568 114.166 48.4912 118.731 42.8794 118.731ZM125.552 118.731C119.94 118.731 115.374 114.166 115.374 108.554C115.374 102.942 119.94 98.3762 125.552 98.3762C131.163 98.3762 135.729 102.942 135.729 108.554C135.729 114.166 131.163 118.731 125.552 118.731ZM145.75 88.6684H143.088C141.62 88.6684 140.426 87.4742 140.426 86.0065V83.3445H145.75V88.6684H145.75Z" fill="#4F4F4F"/>
<path d="M42.8793 103.7C40.2027 103.7 38.0254 105.877 38.0254 108.554C38.0254 111.23 40.2027 113.408 42.8793 113.408C45.5559 113.408 47.7332 111.23 47.7332 108.554C47.7332 105.877 45.5559 103.7 42.8793 103.7Z" fill="#4F4F4F"/>
<path d="M125.552 103.7C122.875 103.7 120.698 105.877 120.698 108.554C120.698 111.23 122.875 113.408 125.552 113.408C128.228 113.408 130.406 111.23 130.406 108.554C130.406 105.877 128.228 103.7 125.552 103.7Z" fill="#4F4F4F"/>
<path d="M97.994 93.6792H62.921C61.624 93.6792 60.5723 94.7307 60.5723 96.0279C60.5723 97.3252 61.6237 98.3767 62.921 98.3767H97.994C99.291 98.3767 100.343 97.3252 100.343 96.0279C100.343 94.7307 99.2913 93.6792 97.994 93.6792Z" fill="#4F4F4F"/>
<path d="M37.8689 83.6582H7.80625C6.50928 83.6582 5.45752 84.7097 5.45752 86.0069C5.45752 87.3042 6.50898 88.3557 7.80625 88.3557H37.8689C39.1659 88.3557 40.2177 87.3042 40.2177 86.0069C40.2177 84.7097 39.1659 83.6582 37.8689 83.6582Z" fill="#4F4F4F"/>
<path d="M60.4158 41.0693C48.0698 41.0693 38.0254 51.1138 38.0254 63.4598C38.0254 75.8058 48.0698 85.8502 60.4158 85.8502C72.7618 85.8502 82.8062 75.8058 82.8062 63.4598C82.8062 51.1138 72.7618 41.0693 60.4158 41.0693ZM60.4158 81.153C50.66 81.153 42.7229 73.2159 42.7229 63.4601C42.7229 53.7042 50.66 45.7671 60.4158 45.7671C70.1717 45.7671 78.1088 53.7042 78.1088 63.4601C78.1088 73.2159 70.1717 81.153 60.4158 81.153Z" fill="#4F4F4F"/>
<path d="M69.5925 69.3147L62.7648 62.4871V53.4391C62.7648 52.1421 61.7134 51.0903 60.4161 51.0903C59.1188 51.0903 58.0674 52.1418 58.0674 53.4391V63.4601C58.0674 64.0829 58.3147 64.68 58.7553 65.1206L66.2708 72.6361C66.7293 73.0946 67.3305 73.324 67.9313 73.324C68.5322 73.324 69.1337 73.0949 69.5919 72.6361C70.5098 71.7188 70.5098 70.232 69.5925 69.3147Z" fill="#4F4F4F"/>
</g>
<defs>
<clipPath id="clip0_91_1144">
<rect width="150" height="150" fill="white" transform="translate(0.447266 0.98584)"/>
</clipPath>
</defs>
</svg>
